<svg xmlns="http://www.w3.org/2000/svg" viewBox="0 0 800 450">
  <defs>
    <linearGradient id="bgGrad" x1="0%" y1="0%" x2="100%" y2="100%">
      <stop offset="0%" style="stop-color:#0f172a"/>
      <stop offset="100%" style="stop-color:#1e293b"/>
    </linearGradient>
    <linearGradient id="shieldGrad" x1="0%" y1="0%" x2="0%" y2="100%">
      <stop offset="0%" style="stop-color:#3b82f6"/>
      <stop offset="100%" style="stop-color:#1d4ed8"/>
    </linearGradient>
    <linearGradient id="tableGrad" x1="0%" y1="0%" x2="0%" y2="100%">
      <stop offset="0%" style="stop-color:#334155"/>
      <stop offset="100%" style="stop-color:#1e293b"/>
    </linearGradient>
    <filter id="glow" x="-50%" y="-50%" width="200%" height="200%">
      <feGaussianBlur stdDeviation="4" result="blur"/>
      <feMerge>
        <feMergeNode in="blur"/>
        <feMergeNode in="SourceGraphic"/>
      </feMerge>
    </filter>
    <pattern id="grid" width="30" height="30" patternUnits="userSpaceOnUse">
      <path d="M 30 0 L 0 0 0 30" fill="none" stroke="#334155" stroke-width="0.5" opacity="0.5"/>
    </pattern>
  </defs>

  <rect width="800" height="450" fill="url(#bgGrad)"/>
  <rect width="800" height="450" fill="url(#grid)"/>

  <g transform="translate(60, 100)">
    <rect x="0" y="0" width="320" height="250" rx="12" fill="url(#tableGrad)" stroke="#475569" stroke-width="2"/>
    
    <rect x="0" y="0" width="320" height="45" rx="12" fill="#3b82f6"/>
    <rect x="0" y="30" width="320" height="15" fill="#3b82f6"/>
    <text x="160" y="30" text-anchor="middle" font-family="system-ui, -apple-system, sans-serif" font-size="16" font-weight="700" fill="white">📊 documents</text>
    
    <text x="20" y="70" font-family="ui-monospace, monospace" font-size="11" font-weight="600" fill="#94a3b8">id</text>
    <text x="60" y="70" font-family="ui-monospace, monospace" font-size="11" font-weight="600" fill="#94a3b8">title</text>
    <text x="180" y="70" font-family="ui-monospace, monospace" font-size="11" font-weight="600" fill="#94a3b8">user_id</text>
    <text x="270" y="70" font-family="ui-monospace, monospace" font-size="11" font-weight="600" fill="#94a3b8">status</text>
    
    <g transform="translate(0, 85)">
      <rect x="10" y="0" width="300" height="36" rx="6" fill="#22c55e" fill-opacity="0.15" stroke="#22c55e" stroke-width="1.5"/>
      <text x="20" y="23" font-family="ui-monospace, monospace" font-size="12" fill="#e2e8f0">1</text>
      <text x="60" y="23" font-family="ui-monospace, monospace" font-size="12" fill="#e2e8f0">Smlouva.pdf</text>
      <text x="180" y="23" font-family="ui-monospace, monospace" font-size="12" fill="#22c55e" font-weight="600">user_42</text>
      <circle cx="285" cy="18" r="8" fill="#22c55e"/>
      <path d="M281 18 l3 3 6 -6" stroke="white" stroke-width="2" fill="none" stroke-linecap="round" stroke-linejoin="round"/>
    </g>
    
    <g transform="translate(0, 127)">
      <rect x="10" y="0" width="300" height="36" rx="6" fill="#22c55e" fill-opacity="0.15" stroke="#22c55e" stroke-width="1.5"/>
      <text x="20" y="23" font-family="ui-monospace, monospace" font-size="12" fill="#e2e8f0">2</text>
      <text x="60" y="23" font-family="ui-monospace, monospace" font-size="12" fill="#e2e8f0">Report.xlsx</text>
      <text x="180" y="23" font-family="ui-monospace, monospace" font-size="12" fill="#22c55e" font-weight="600">user_42</text>
      <circle cx="285" cy="18" r="8" fill="#22c55e"/>
      <path d="M281 18 l3 3 6 -6" stroke="white" stroke-width="2" fill="none" stroke-linecap="round" stroke-linejoin="round"/>
    </g>
    
    <g transform="translate(0, 169)" opacity="0.4">
      <rect x="10" y="0" width="300" height="36" rx="6" fill="#ef4444" fill-opacity="0.15" stroke="#ef4444" stroke-width="1.5"/>
      <text x="20" y="23" font-family="ui-monospace, monospace" font-size="12" fill="#94a3b8">3</text>
      <text x="60" y="23" font-family="ui-monospace, monospace" font-size="12" fill="#94a3b8">██████████</text>
      <text x="180" y="23" font-family="ui-monospace, monospace" font-size="12" fill="#ef4444">user_99</text>
      <circle cx="285" cy="18" r="8" fill="#ef4444" fill-opacity="0.8"/>
      <path d="M281 14 l8 8 M289 14 l-8 8" stroke="white" stroke-width="2" fill="none" stroke-linecap="round"/>
    </g>
    
    <g transform="translate(0, 211)" opacity="0.4">
      <rect x="10" y="0" width="300" height="36" rx="6" fill="#ef4444" fill-opacity="0.15" stroke="#ef4444" stroke-width="1.5"/>
      <text x="20" y="23" font-family="ui-monospace, monospace" font-size="12" fill="#94a3b8">4</text>
      <text x="60" y="23" font-family="ui-monospace, monospace" font-size="12" fill="#94a3b8">██████████</text>
      <text x="180" y="23" font-family="ui-monospace, monospace" font-size="12" fill="#ef4444">user_15</text>
      <circle cx="285" cy="18" r="8" fill="#ef4444" fill-opacity="0.8"/>
      <path d="M281 14 l8 8 M289 14 l-8 8" stroke="white" stroke-width="2" fill="none" stroke-linecap="round"/>
    </g>
  </g>

  <g transform="translate(440, 130)" filter="url(#glow)">
    <path d="M80 0 L160 40 L160 120 Q160 180 80 200 Q0 180 0 120 L0 40 Z" fill="url(#shieldGrad)" stroke="#60a5fa" stroke-width="2"/>
    <path d="M80 25 L140 55 L140 115 Q140 160 80 175 Q20 160 20 115 L20 55 Z" fill="none" stroke="white" stroke-width="2" opacity="0.3"/>
    <g transform="translate(50, 70)">
      <rect x="0" y="0" width="60" height="45" rx="4" fill="white" fill-opacity="0.2"/>
      <path d="M20 30 L25 35 L40 20" stroke="white" stroke-width="4" fill="none" stroke-linecap="round" stroke-linejoin="round"/>
    </g>
  </g>

  <g transform="translate(620, 130)">
    <rect x="0" y="0" width="140" height="200" rx="10" fill="#0f172a" stroke="#475569" stroke-width="2"/>
    <rect x="0" y="0" width="140" height="35" rx="10" fill="#22c55e"/>
    <rect x="0" y="25" width="140" height="10" fill="#22c55e"/>
    <text x="70" y="24" text-anchor="middle" font-family="system-ui, sans-serif" font-size="12" font-weight="700" fill="white">✓ Výsledek</text>
    
    <g transform="translate(10, 50)">
      <rect x="0" y="0" width="120" height="28" rx="4" fill="#22c55e" fill-opacity="0.2" stroke="#22c55e" stroke-width="1"/>
      <text x="10" y="19" font-family="ui-monospace, monospace" font-size="10" fill="#22c55e">Smlouva.pdf</text>
    </g>
    <g transform="translate(10, 85)">
      <rect x="0" y="0" width="120" height="28" rx="4" fill="#22c55e" fill-opacity="0.2" stroke="#22c55e" stroke-width="1"/>
      <text x="10" y="19" font-family="ui-monospace, monospace" font-size="10" fill="#22c55e">Report.xlsx</text>
    </g>
    
    <text x="70" y="145" text-anchor="middle" font-family="system-ui, sans-serif" font-size="11" fill="#64748b">Pouze vaše</text>
    <text x="70" y="160" text-anchor="middle" font-family="system-ui, sans-serif" font-size="11" fill="#64748b">dokumenty</text>
    <text x="70" y="185" text-anchor="middle" font-family="system-ui, sans-serif" font-size="24" fill="#22c55e">🔒</text>
  </g>

  <g transform="translate(390, 215)">
    <path d="M0 10 L30 10" stroke="#3b82f6" stroke-width="3" stroke-dasharray="6,3"/>
    <polygon points="30,5 40,10 30,15" fill="#3b82f6"/>
  </g>
  <g transform="translate(570, 215)">
    <path d="M0 10 L30 10" stroke="#22c55e" stroke-width="3" stroke-dasharray="6,3"/>
    <polygon points="30,5 40,10 30,15" fill="#22c55e"/>
  </g>

  <text x="400" y="50" text-anchor="middle" font-family="system-ui, -apple-system, sans-serif" font-size="32" font-weight="800" fill="white">Row Level Security</text>
  <text x="400" y="80" text-anchor="middle" font-family="system-ui, -apple-system, sans-serif" font-size="16" fill="#94a3b8">Automatická ochrana dat na úrovni databáze</text>

  <g transform="translate(60, 390)">
    <rect x="0" y="0" width="16" height="16" rx="3" fill="#22c55e" fill-opacity="0.3" stroke="#22c55e" stroke-width="1.5"/>
    <text x="24" y="13" font-family="system-ui, sans-serif" font-size="13" fill="#94a3b8">Přístupné</text>
    
    <rect x="120" y="0" width="16" height="16" rx="3" fill="#ef4444" fill-opacity="0.3" stroke="#ef4444" stroke-width="1.5"/>
    <text x="144" y="13" font-family="system-ui, sans-serif" font-size="13" fill="#94a3b8">Blokované</text>
  </g>

  <rect x="550" y="385" width="190" height="36" rx="8" fill="#3b82f6" fill-opacity="0.15" stroke="#3b82f6" stroke-width="1.5"/>
  <text x="645" y="408" text-anchor="middle" font-family="ui-monospace, monospace" font-size="11" fill="#60a5fa">WHERE user_id = auth.uid()</text>
</svg>
