<svg xmlns="http://www.w3.org/2000/svg" xmlns:xlink="http://www.w3.org/1999/xlink" id="svgmapy" viewBox="0 0 215 120"><style>.kraj,.kraj:hover{stroke:#fff;transition:all .3s}.kraj:hover{fill:#0d6ab7;cursor:pointer}.kraj{fill:#1081dd}#svgmapy,svg{width:100%;height:100%}#mapasvg-cesko{width:100%}</style><g id="mapasvg-cesko"><a xlink:href="#"><path id="moravskoslezsky-kraj" fill="#31313D" stroke="#FFF" d="M197.038 75.43c-.278-.087-.445-.1-.566-.045-.095.043-.336.06-.536.038l-.364-.04-.05-.484c-.028-.27-.05-.62-.05-.78 0-.42-.124-.54-.8-.79-.663-.25-.627-.2-1.192-1.47-.38-.86-.77-.98-2.162-.66-1.076.24-1.273.23-1.59-.15-.594-.7-.88-.94-1.12-.94-.13 0-.334.07-.45.16l-.21.16-.097-.22c-.09-.21-.12-.21-.54-.18-.24.02-.98.22-1.64.44-1.29.43-2.04.58-2.23.42-.06-.05-.13-.28-.17-.51-.08-.58-.23-.85-.58-.99-.28-.12-.82-.11-1.35.02-.15.04-.19 0-.23-.18-.15-.71-.24-.93-.41-1.05-.3-.2-.69-.09-1.19.34-.44.38-.68.42-.68.13 0-.09.13-.25.28-.37.15-.12.3-.3.33-.4.08-.31-.33-.99-.97-1.62-.61-.6-1-.85-1.48-.94-.38-.07-.5-.22-.84-1.02-.36-.85-.54-1.14-.77-1.24-.3-.13-.46-.04-.62.34-.08.19-.19.35-.24.35-.19 0-.61-.33-.75-.6l-.15-.28.22-.62c.11-.34.23-.71.25-.83.07-.31-.25-.87-.65-1.17-.4-.31-1.24-.59-1.75-.59-.31 0-.4.04-.83.44-.57.52-.55.52-1.37-.25-.57-.53-.88-.66-1.17-.47-.14.09-.18.19-.18.43 0 .17-.04.34-.08.37-.04.03-.24-.1-.43-.27-.43-.4-.66-.46-1.27-.33-.86.19-.89.19-1.15-.01-.13-.1-.55-.62-.92-1.16-1.03-1.49-1.38-1.68-1.97-1.05-.4.43-.46.42-1.49-.23-1-.64-1.19-.69-1.7-.42-.22.12-.4.18-.4.14 0-.04.09-.31.2-.6.26-.68.26-.96.01-1.22-.11-.11-.23-.2-.28-.2-.05 0-.3.2-.56.45-.52.5-.56.5-1.01.02-.27-.29-.5-.76-.5-1.04 0-.1.17-.4.37-.68.47-.65.53-.93.27-1.21l-.19-.2.24-.17c.13-.1.38-.3.54-.47.24-.24.3-.36.3-.59 0-.43-.18-.67-.81-1.11-.68-.48-.77-.66-.59-1.21.2-.64.88-1.69 1.32-2.06.22-.19.5-.5.63-.7.32-.47.32-.87 0-1.66-.13-.33-.24-.62-.24-.64 0-.02.17-.14.36-.28.46-.31.51-.51.28-1.14l-.18-.51.19-.28c.39-.56.9-1.11 1.4-1.51.49-.39.53-.41 1-.41.43 0 .52-.03.69-.21.11-.12.25-.41.32-.66l.17-.59c.09-.31.25-.33.63-.07.7.48 1.05.48 1.3-.01.11-.21.13-.4.09-1l-.04-.74.24-.1c.13-.06.45-.26.71-.44.25-.19.57-.4.7-.47.35-.19 1.53-.37 2.32-.37.65 0 .71.02.97.24.17.14.37.24.51.24.53 0 1.74-.87 2.25-1.6.23-.33.25-.55.08-1.11-.07-.25.14-.24.67.03.44.22.82.62.82.87 0 .08-.15.4-.33.71-.39.67-.48 1.2-.27 1.53.08.12.36.31.64.44s.53.29.56.36c.09.23.06.81-.04.91-.05.05-.31.09-.59.09-.63 0-.89.19-.96.71-.06.46-.21.55-1.4.78-1.47.29-1.96.58-2.15 1.26-.08.27.02.68.24.99.16.23 1.79 1.53 2.16 1.72.52.27.92.14 1.08-.34l.09-.25.25.21c.55.46 1.83 2.74 1.96 3.5.11.65.36.91.91.98.82.1.87.13.88.49.01.22.07.4.21.56.3.36.84.77 1.18.89.45.17 1.21.08 1.76-.19.46-.23.48-.26 1.11-1.27.18-.3.76-.66 1.21-.75.3-.07.36-.06.6.12.44.34.73.43 1.02.33.6-.21.66-1.3.11-1.88l-.27-.28-.52.05c-.48.05-.52.04-.52-.1 0-.16.24-.42.52-.57.34-.17 1.01.1 1.5.6.27.28.31.39.42 1.03.15.86.28 1.15.66 1.49.41.36.87.55 1.35.55.48 0 .63-.1.71-.5.08-.36.18-.46.48-.46s.36.1.36.56c0 .8.29 1 1.4 1h.8l.01.36c0 .2.01.45.02.55.01.25.74 1.01 1.16 1.22.6.29.93.19.93-.29 0-.23.03-.27.26-.31.37-.08.46-.18.46-.5v-.28l.66.05c.65.04 1.42.24 1.82.45.11.06.52.35.92.64 1.18.88 1.59 1.02 2.17.74.53-.25.69-.66.47-1.17-.07-.17.1-.19.32-.03.14.11.14.13.01.73-.26 1.17-.13 1.51.66 1.8.27.1.51.22.54.26.02.04-.15.28-.39.53-.72.75-.73.81-.38 2.16.41 1.55 1.17 3.11 1.98 4.07.41.48.59.55 1.64.62.42.03.8.08.85.11.04.02.13.26.19.53.09.39.15.5.37.62.35.2.98.2 1.58-.01.78-.28.86-.25 1.14.37.27.6.36.99.53 2.36.14 1.08.31 1.9.48 2.21.06.12.26.34.44.48.18.15.33.33.33.4 0 .08-.13.31-.27.52-.15.21-.29.47-.32.58-.03.11-.09.2-.15.2-.38.01-.76.22-1.32.76-.34.32-.69.63-.79.68-.31.16-.62.1-1.18-.23-.63-.37-1.07-.51-1.39-.43-.12.03-.49.2-.83.36-.33.17-.64.31-.69.31-.05 0-.16-.12-.25-.27-.31-.49-.9-.57-1.63-.2-1.05.53-1.33 1.13-.89 1.91l.2.36-.83.8c-.82.79-.93.95-1.1 1.62-.11.42-.6.97-.93 1.02-.13.02-.41-.01-.63-.08z" class="kraj"/></a><a xlink:href="#"><path id="vysocina" fill="#31313D" stroke="#FFF" d="M108.605 100.284c.274-.184.502-.63.822-.55.48.118.584 1.098 1.07 1.02.44-.068.09-.975.43-1.26.35-.29.918-.37 1.35-.224.41.138.46 1.12.868.97.564-.207.4-1.186.836-1.598.27-.245.78.035 1.07-.186.4-.31.36-1.06.81-1.277.53-.26 1.27.38 1.75.04.39-.28-.16-1.13.22-1.43.29-.23.67.6 1.01.45.36-.16.17-.81.45-1.08.24-.23.65-.42.95-.28.26.12.04.61.23.82.28.29.68.46 1.07.57.2.05.47.04.62-.11.23-.24.06-.89.39-.91.6-.05 1.05.64 1.64.76.34.06.68-.13.99-.27.32-.15.76-.27.87-.6.09-.29-.67-.65-.41-.81.69-.42 1.7.02 2.38-.39.36-.22.02-.9.28-1.22.18-.22.63.04.83-.16.37-.38.65-.9.72-1.43.05-.3-.1-.74-.4-.81-.3-.08-.47.49-.78.51-.2.01.4-.29.36-.49-.07-.34-.8-.52-.64-.83.27-.55 1.17-.5 1.54-.98.18-.23.08-.65-.12-.85-.31-.3-1.09-.04-1.21-.46-.18-.64.13-1.4.53-1.93.22-.3 1.09.12 1.1-.25.02-.51-1.08-.59-1.06-1.1.03-.64.9-.94 1.19-1.51.09-.18-.28-.46-.13-.58.87-.68 2.22-.73 2.91-1.59.35-.44-.2-1.11-.3-1.67-.14-.77-.51-1.52-.45-2.3.04-.58.81-1.01.72-1.58-.09-.55-1.05-.67-1.16-1.21-.06-.33.7.45.98.26.52-.34 1.1-.96 1-1.57-.11-.62-1.25-.59-1.46-1.17-.18-.49.33-.99.5-1.48-.45-.49-.78-1.13-1.35-1.46-.73-.42-1.72-.26-2.43-.72-.5-.33-.47-1.2-.98-1.51-.82-.5-1.89-.37-2.77-.75-.2-.09-.1-.65-.31-.58l-1.14.38c-.53.17-.67-.91-1.01-1.36-.54-.07-1.14.04-1.63-.21-.35-.18-.32-1.15-.67-.97-.54.29-.34 1.21-.71 1.7-.12.16-.62-.16-.59.04l.12.62c.07.39-.79.27-1.18.2-.3-.06-.47-.38-.71-.57-.49-.32-1.22-.43-1.47-.96-.18-.39.42-.78.44-1.21.01-.18-.23.42-.4.36-.53-.2-.84-.81-1.36-1.01-.32-.13-.81.34-1.03.08-.23-.29.47-.84.19-1.09-.33-.31-.94.22-1.34.03-.44-.2-.54-.82-.93-1.1-.41-.3-.9-.55-1.41-.57-.74-.03-1.46.57-2.19.42-.36-.07-.24-.73-.52-.97-.72-.61-1.6-1.01-2.4-1.51v.01c-.8.53-1.88.78-2.4 1.59-.24.37.58.73.62 1.17.02.25-.21.57-.46.6-.44.05-.86-.58-1.26-.4-.39.18-.11.98-.48 1.2-.6.36-1.42.08-2.08.33-.41.16-.59.76-1.02.84-.22.04-.11-.53-.33-.59-.28-.07-.66.05-.82.29-.27.44-.09 1.06-.32 1.52-.28.55-1 .84-1.19 1.44-.14.44-.05 1.07.32 1.36.38.3 1.14-.29 1.46.07.44.48.76 1.42.35 1.94-.47.61-1.62.11-2.27.54-.31.21.19 1.08-.19 1.11-.59.05-.89-.94-1.48-.97-.68-.03-1.2.76-1.88.82-.83.08-1.67-.69-2.46-.43-.37.12.61.85.33 1.14-.34.36-1.11-.24-1.49.08-.34.29-.13.9-.2 1.34v-.02c.14.4.6.82.4 1.19-.21.4-1.2.01-1.27.45-.09.58.99.9.95 1.49-.1 1.78-1.33 3.4-1.32 5.18.01.56 1.23.42 1.37.95.12.43-.79.58-.83 1.02-.05.43.31.82.6 1.14.53.6 1.02 1.44 1.81 1.59.57.12.89-.98 1.47-.94.51.04.59.87 1.03 1.11.39.21.98-.14 1.31.15.23.2.11.76-.08.85-.2.08-1.05-.03-.8.02.51.11 1.13-.11 1.55.2.36.25.14.91.44 1.22.21.22.63.3.9.17.36-.17.33-.94.72-.94.75-.01 1.44.47 2.05.9.13.09-.26.46-.11.45.94-.05 1.98-1.12 2.75-.59.67.46-.48 1.71-.09 2.41.58 1.04 1.65 1.78 2.71 2.32.26.13.19-.7.47-.71.68-.03 1.28.64 1.96.6.53-.03.87-.66 1.39-.78.25-.06.61.05.7.28.1.24-.43.52-.28.73.22.32.79.18 1.08.44.22.2.38.52.35.82-.03.3-.24.65-.53.74-.33.1-.77-.52-.99-.26-.35.41.06 1.12-.16 1.62-.11.23-.59.06-.71.28-.1.18.34.39.23.57-.34.56-1.32.72-1.42 1.36-.06.4.88-.17 1.19.07.21.16-.29.62-.08.78.52.4 1.33.24 1.87.61.22.16.11.54.17.81l.01.01z" class="kraj"/></a><a xlink:href="#"><path id="karlovarsky-kraj" fill="#31313D" stroke="#FFF" d="M14.456 54.665c-.118-.062-.317-.177-.442-.255-.205-.128-.23-.166-.257-.36-.098-.75-.278-.906-1.394-1.213-.603-.167-1.01-.377-1.01-.523 0-.048.167-.25.37-.45.42-.417.505-.55.505-.814 0-.234-.15-.45-.607-.877-.49-.46-.81-.555-1.14-.332-.29.2-.28.2-.25.02.08-.45-.24-.68-1.32-.97-.72-.19-.8-.25-1.14-.76-.3-.45-.51-.62-.73-.63-.11 0-.13-.02-.16-.21-.06-.41-.37-.56-1.19-.56-.6 0-.68-.03-.5-.19.31-.28.34-.57.11-.86-.22-.28-.45-.45-1.13-.83-.98-.56-1.19-.8-1.19-1.37 0-.53.08-.76.4-1.2.35-.48.4-.64.34-1.09-.06-.44-.11-.59-.32-.97-.21-.38-.43-.57-.87-.75-.5-.21-.51-.23-.51-.7 0-.73-.24-.95-1.09-.95-.47 0-.5 0-.69-.15-.12-.09-.2-.18-.19-.23.01-.04.25-.19.57-.35.64-.31.9-.54.95-.85.05-.29-.11-.68-.44-1.09-.66-.79-.69-.86-.5-1.03.33-.3 1.18-.28 1.74.05.36.21.38.27.38 1.21 0 .76.01.85.11 1.03.06.11.18.25.27.32.15.11.21.11.87.11.71 0 .87.04.87.19 0 .03-.15.12-.33.21-.48.22-.58.5-.3.88.16.22.33.34.91.63.22.11.43.26.47.32.08.12.08.13-.07.31-.46.54-.54.83-.35 1.35.22.58.97 1.11 1.59 1.11.26.01.32-.01.43-.11.07-.07.16-.23.2-.37.14-.48.14-.77.02-1.84-.06-.57-.1-1.05-.09-1.06.02-.01.11.02.22.07.13.07.24.09.34.07.2-.04.26-.1.32-.31.05-.16.04-.23-.06-.54-.06-.2-.11-.4-.1-.45.01-.11.28-.49.63-.89.22-.25.31-.31.53-.38.44-.13.54-.41.37-1.13-.04-.19-.07-.36-.06-.37.02-.01.15 0 .31.03.57.11.78-.03 1.29-.85.44-.7.45-.71.63-.53.11.11.19.14.31.14.38-.01.52-.32.66-1.45.09-.67.16-.8.59-1.01.71-.34 1.68-.49 2.84-.44.66.04.7.03 1.08-.09.22-.07.44-.13.51-.12.07.01.19.13.35.38.13.2.31.41.38.46.21.15.51.14.73-.03.22-.16.32-.36.47-.88.06-.21.14-.44.18-.51.13-.27.98-.76 1.47-.86.14-.03.27-.04.28-.03.01.01.04.15.07.3.07.41.08.44.22.5.19.09.33.07.45-.05.16-.17.21-.37.21-.82 0-.23.02-.42.04-.42.06 0 .6.35.87.55.33.26.95.81 1.87 1.68.7.67.91.82 1.04.74.04-.02.1.01.18.11.31.36.72.42 1.4.18.48-.16.61-.16 1.5-.01.54.09.82.19 1.11.37.27.18.28.25.1.65s-.19.75 0 .94c.37.38.89.36 2.31-.08.46-.14.64-.17 1.01-.18.43 0 .45 0 .6.14.27.26.36.49.35.93 0 .34-.04.48-.26 1.12-.35 1.01-.44 1.32-.44 1.61 0 .31.07.38.38.38h.22l.07.24c.04.14.06.32.04.44-.03.18-.05.21-.23.27-.47.16-.4.5.22 1.01l.38.31-.18.18c-.32.33-.21.66.24.71.19.02.25.06.34.18.29.38.74 1.55.69 1.76-.02.1-.05.11-.29.08-.25-.02-.27-.02-.35.1-.08.12-.08.15-.01.31l.07.18-.35.01c-.3 0-.37.02-.59.16-.38.24-.46.5-.22.74.17.17.42.24.88.24.49 0 .61.08.86.57l.2.38-.16.05c-.43.13-.67 1.13-.35 1.46.09.09.17.11.36.11.21 0 .25.02.25.09 0 .14-.18.34-.33.37-.07.02-.38.05-.69.07-.8.06-1.09.23-1.22.7-.07.25-.03.55.15 1.17.2.72.22.87.09 1-.05.05-.15.1-.22.1-.12 0-.55-.31-.68-.49-.21-.3-.8-.83-1.04-.95-.24-.11-.3-.12-.73-.09l-.74.06c-.22.03-.28.02-.28-.03 0-.21-.11-.44-.22-.49-.26-.1-.45.08-.75.69-.25.51-.34.57-1.42.98-1.14.43-1.37.6-1.3.92.04.17.03.18-.43.1-.71-.12-.96.26-.83 1.23.08.58.06.75-.18 1.06-.19.25-.44.43-.61.43-.07 0-.24-.1-.44-.26-.41-.34-.48-.37-.77-.37-.2 0-.29.03-.61.24-.2.13-.42.24-.49.24-.08 0-.23-.11-.48-.34-.2-.19-.44-.37-.53-.41-.35-.15-1.62-.06-2.48.16-.51.13-1.08.33-1.22.42-.16.1-.15.33.01.55l.13.17-.43-.03c-.37-.02-.45-.02-.61.06l-.17.09-.08-.13c-.11-.18-.32-.28-.59-.28-.31 0-.46.09-.95.56-.38.37-.58.51-.74.51-.03 0-.16-.05-.27-.11z" class="kraj"/></a><a xlink:href="#"><path id="plzensky-kraj" fill="#31313D" stroke="#FFF" d="M41.948 100.69c-.13-.07-.544-.4-.92-.73-.376-.33-.82-.71-.988-.846-.342-.276-.317-.07-.255-2.046l.03-.948-.292-.514c-.59-1.043-1.682-2.136-3.028-3.03-.638-.426-.975-.47-1.58-.21-.204.086-.43.157-.502.157-.25 0-1.08-.456-1.356-.745-.266-.28-.278-.32-.325-1.036-.063-.983-.225-1.238-1.11-1.753-.88-.52-1.058-.71-1.256-1.39-.294-1.02-.327-1.1-.572-1.38-.133-.15-.514-.41-.846-.58-.332-.17-.65-.36-.71-.43-.103-.13-.094-.39.044-1.29.044-.29.024-.36-.153-.54-.14-.14-.29-.21-.48-.21-.25 0-.35-.09-1.01-.8-.84-.91-1.28-1.2-2.11-1.38-1.12-.25-1.77-.01-1.6.58.09.3.05.31-.96.12-.77-.14-1.6-.52-1.82-.83-.09-.12-.19-.52-.27-1.03-.14-.92-.29-1.25-.83-1.81-.57-.58-1.09-.88-1.77-1-.34-.06-.68-.17-.76-.25-.24-.21-.47-.78-.56-1.36-.08-.5-.07-.58.15-1.27.45-1.39.29-1.82-.82-2.08-.34-.08-.67-.19-.73-.24-.19-.15-.35-.77-.44-1.65-.18-1.71-.29-2.17-.52-2.38-.18-.16-.28-.18-.56-.14-.31.04-.35.03-.38-.13-.03-.1 0-.58.06-1.08.2-1.73-.08-2.2-1.49-2.42-.37-.06-.78-.16-.9-.23-.54-.27-1.43-1.59-1.43-2.1 0-.46.17-.6 1.21-.94 1-.33 1.28-.76 1.15-1.83-.1-.9-.1-1.01.07-1.01.29 0 .62-.17.71-.37.05-.11.06-.33.04-.51-.07-.39.16-.79.94-1.69.31-.35.57-.65.58-.67.01-.01.16.08.35.2.26.17.43.22.74.22.38 0 .43-.03 1.01-.53.34-.3.65-.52.72-.49.06.02.21.25.33.51.28.59.44.74.7.67.23-.06.26-.29.08-.6-.06-.11-.12-.23-.12-.26 0-.04.23-.06.52-.05.43.01.55-.02.68-.15.17-.17.17-.18-.08-.65-.08-.15 1.83-.54 2.64-.55.39 0 .44.02.85.39.65.58.77.59 1.64.07l.29-.17.41.33c.39.31.54.36.9.33.26-.03.72-.37.92-.69.16-.27.18-.4.18-1.13v-.83l.51.02c.62.03.81-.08.82-.47.01-.26.02-.28.68-.53.37-.14.84-.34 1.05-.43.39-.18.84-.61.84-.81 0-.18.14-.21.34-.08.16.1.33.12.99.07l.79-.05.79.76c.76.74.88.81 1.31.77.28-.03.5-.23.55-.51.04-.18-.02-.56-.15-1.12-.18-.77-.19-.87-.08-1.03.13-.2.24-.23.99-.29.28-.02.61-.09.73-.14.59-.27.57-1.25-.03-1.25-.3 0-.35-.1-.24-.44.08-.26.11-.28.34-.23.15.02.36-.01.54-.08l.3-.13v.31c0 .61.56.76.82.21.07-.16.16-.28.19-.28s.11.17.16.37c.18.71.63.93 1.09.53.13-.11.26-.2.3-.2.03 0 .14.14.24.31l.17.31-.18.04c-.21.05-.75.93-.82 1.34-.06.38.15.57.72.65.51.06.89.01 2-.26.84-.2 1.53-.22 1.58-.05.03.07-.07.1-.31.1-.19 0-.42.06-.52.12-.21.15-.23.44-.04.6.3.25 2.53 1.25 3 1.34.49.09.49.09 1.08-.21.59-.3.6-.3.77-.15.09.08.31.44.49.78.55 1.09.83 1.26 1.61.99.25-.09.47-.15.49-.14.01.01-.01.26-.06.54-.16.98.04 1.15 1.49 1.26l1.01.08-.12.22c-.12.2-.11.28.05.99l.22.95c.04.16.02.18-.23.18-.34 0-.39.06-.6.75-.48 1.63-.73 3.01-.73 4.13 0 .78.05.88.47.89h.28l-.28.12c-.41.18-.62.41-.67.75-.06.36-.11.38-.35.11-.21-.22-.53-.26-1.06-.1-.68.19-.87.39-1.4 1.37-.42.78-.49.95-.44 1.19.03.16.13.32.24.4.11.07.19.19.19.28 0 .15.33.53.71.79.2.14.2.14-.25.1-.25-.02-.5-.06-.56-.09-.08-.03-.14.03-.19.18l-.08.22 1.35.71 1.35.71.02.29c.02.21-.08.54-.33 1.14-.45 1.1-.52 1.33-.52 1.69 0 .41.15.52.6.41.22-.05.37-.05.4-.01.02.04.02.32-.01.61-.04.39-.12.67-.32 1.04-.32.59-.36 1.04-.11 1.17.09.05.23.06.32.04.18-.06.18-.08.02.56-.18.72-.11 1 .33 1.3.19.13.35.27.35.31 0 .03-.11.11-.24.16-.32.13-.61.49-.68.85-.07.37.05.82.49 1.79.45 1 .5 1.32.27 1.79-.28.55-.45.69-.97.79-.86.17-1.09.54-.81 1.33.18.5.17.51-.28.48-.47-.03-.61.06-.68.43-.07.36.22.96.53 1.09l.23.1-.41.25c-.73.45-.78.98-.17 1.69.16.18.34.41.382.51.08.15.06.17-.23.26-.18.05-.39.16-.48.25-.15.14-.16.22-.11.74l.05.58-.26-.08c-.6-.17-.8-.07-1.28.69-.12.18-.26.33-.31.33-.05 0-.27-.12-.49-.27-.43-.3-.68-.35-.87-.16-.22.22-.23.5-.05 1.01.28.79.28.74.01.8-.45.097-.43.46.08 1.3.46.78.51.98.34 1.28-.22.37-.38.45-.56.28-.23-.21-.38-.16-.68.19-.52.61-.64.96-.64 1.89-.01.45.02 1.01.06 1.23l.06.41-.34-.06c-.81-.15-1.17.13-1.17.89 0 .51-.04.54-.44.33z" class="kraj"/></a><a xlink:href="#"><path id="praha" fill="#31313D" stroke="#FFF" d="M69.453 52.69l-.47-.243.255-.234c.3-.275.313-.578.025-.62-.22-.03-.22-.045-.015-.323.333-.45-.06-.89-.793-.89-.177 0-.347-.04-.376-.087-.03-.048.05-.226.19-.396.26-.323.33-.738.15-.85-.06-.035-.25-.083-.42-.106-.31-.04-.33-.06-.48-.48-.09-.24-.24-.58-.34-.74-.1-.16-.18-.31-.18-.32 0-.01.11-.07.24-.12.3-.12.47-.36.47-.64 0-.3-.39-.83-.85-1.16-.22-.15-.4-.32-.4-.37 0-.1.86-.58 1.18-.65.19-.04.23-.02.33.23.13.31.27.41.78.52.45.1.94 0 1.14-.25.13-.16.14-.27.09-.85l-.06-.67.5.05c.56.06.68.02 2.58-.78.57-.24 1.17-.46 1.34-.49.29-.05.3-.05.3.19 0 .38.27.51 1.2.58.43.03.83.08.87.11.05.03.06.24.03.56l-.05.51.27.17c.15.09.39.17.55.17.15 0 .47.03.7.05l.42.05-.05.34c-.06.42.11.62.72.81.58.19.77.33.77.56 0 .35-.14.49-.73.72-1 .4-1.16.72-.92 1.92.08.4.16.77.19.84.03.08 0 .1-.1.06-.19-.07-.43.07-.46.27-.03.16-.06.15-.47-.15-.84-.59-1.21-.71-1.36-.41-.08.14-.17.16-.83.16-.84 0-.98.05-.92.34.03.19.02.2-.39.24-.51.04-.75.23-1.04.81-.25.49-.44.58-.98.47-.68-.14-1.18-.11-1.38.08-.16.16-.17.23-.12.76l.05.59h-.38c-.26 0-.53-.08-.85-.25z" class="kraj"/></a><a xlink:href="#"><path id="stredocesky-kraj" fill="#31313D" stroke="#FFF" d="M55.666 74.153c-.124-.05-.16-.12-.135-.256.06-.267-.44-.74-.9-.868-.42-.12-.67-.04-.88.27-.17.27-.25.25-.38-.07-.16-.39-.44-.43-1.14-.19-.3.1-.61.22-.68.25-.12.05-.13.01-.09-.34.06-.49-.08-.96-.3-1.03-.09-.03-.28-.03-.43 0-.19.03-.27.02-.27-.05 0-.05.19-.55.41-1.1.5-1.23.58-1.78.31-2.11-.09-.13-.47-.37-.83-.55-.35-.18-.66-.34-.68-.36-.02-.02.03-.1.1-.18.14-.15.17-.39.09-.61-.02-.07-.22-.24-.44-.38-.21-.14-.39-.29-.39-.33 0-.04.17-.08.38-.08.47 0 .78-.15.81-.39.06-.42-.32-.52-1.08-.28-.68.21-.7.1-.2-.9.41-.82.44-.86.84-1.04.58-.27.79-.26.98.06.18.31.27.37.49.38.25 0 .43-.25.51-.71.04-.23.08-.43.1-.45.02-.02.27-.12.55-.22.42-.15.53-.23.6-.41.13-.36-.01-.49-.54-.52l-.45-.02v-.66c0-.81.21-2.04.56-3.28.21-.74.29-.94.38-.9.3.11.48.12.61.02.14-.11.14-.16-.11-1.22-.16-.7-.23-1.14-.18-1.21.36-.48.38-.53.3-.74-.07-.2-.1-.21-.54-.19-.68.03-1.97-.12-2.09-.24-.07-.08-.07-.28-.01-.81.08-.62.07-.72-.05-.84-.13-.13-.18-.12-.78.09-.63.22-.65.23-.81.08-.09-.08-.31-.43-.48-.79-.38-.76-.55-.96-.92-1.08-.25-.08-.33-.07-.86.21-.56.29-.59.29-.98.2-.49-.12-2.18-.93-2.18-1.04 0-.05.07-.09.16-.09.21 0 .48-.27.48-.48 0-.09-.11-.28-.23-.42-.22-.25-.26-.26-.78-.25-.3.01-.92.1-1.39.22-.92.22-2 .28-2 .11 0-.06.11-.29.24-.52.21-.38.27-.42.44-.38.12.03.25.01.32-.05.17-.14.09-.49-.25-1.07-.3-.51-.3-.69-.04-1.01.14-.18.18-.18.47-.09.79.23 1.06.06 1.06-.66v-.46l.21.13c.17.11.25.12.41.05.22-.1.22-.12.06-1.55-.05-.45-.04-.48.22-.75.15-.16.54-.41.87-.57l.6-.28.7.08c.83.1 1.15.03 1.55-.32.21-.19.8-.92 1.13-1.42.01-.02.12.05.25.14.47.33 1.75.39 2.54.12.41-.15.59-.31 1.19-1.09.41-.54.67-.79.82-.79.03 0 .16.22.29.48.28.55.47.68.9.62.4-.06.6-.24.71-.65l.16-.62c.08-.32.33-.46 1.4-.78.31-.09.7-.25.88-.35.28-.16.32-.22.31-.47l-.01-.28.34.12c.27.1.39.1.54.03.31-.14.34-.47.09-1.06-.24-.54-.22-.63.14-.9.32-.24.74-.27 1.17-.08.59.25 2.3.59 3.22.63 1.03.05 1.47-.07 1.51-.4.03-.26.07-.26.38-.05.53.36 1.01.55 1.35.55.42 0 .54-.11.78-.73.21-.56.33-.6 1.31-.38 1.79.4 2.36-.05 2.25-1.76-.03-.54-.1-.88-.25-1.24-.11-.28-.24-.6-.28-.72-.11-.38.11-.35.59.05.49.41.81.48 1.06.2.12-.14.15-.28.13-.8-.01-.35.01-.64.05-.64s.29.09.56.2c.61.25.62.25.86 0 .28-.28.25-.63-.12-1.47-.17-.39-.32-.77-.32-.84 0-.08.12-.16.3-.21.17-.04.3-.07.31-.06.14.29.32.46.47.46.32 0 .45-.09.61-.41.09-.17.19-.31.22-.31.04 0 .13.1.2.24.28.47.61.47 1.05 0 .13-.13.27-.25.31-.25.04 0 .06.29.05.65-.02.62-.01.65.21.84.31.26.44.24 1-.13.53-.35.71-.38 1.38-.2.87.24 1.33.11 1.14-.32-.08-.18-.07-.2.1-.2.29 0 .68-.16.77-.32.04-.08.08-.31.08-.52 0-.33.02-.37.14-.31.07.04.27.08.43.1.27.03.3.01.38-.25.08-.24.07-.4-.06-.95-.09-.37-.14-.71-.12-.77.08-.21.41-.1 1.1.34.86.55 1.26.63 1.69.34.52-.36.76-1.05.47-1.37-.18-.2-.09-.26.64-.42.41-.09.71-.21.87-.35.24-.2.24-.22.19-.69-.03-.27-.06-.58-.07-.69-.01-.15.02-.21.16-.23.12-.02.26.08.48.36.6.75.81.92 1.04.89.19-.02.23-.07.26-.3.05-.34.24-.47.54-.36.18.06.31.23.59.8.57 1.14.68 1.24 1.35 1.24.47 0 .54.07.85.83.23.57.48.81.94.91.12.02.22.06.22.08 0 .02-.11.13-.24.24-.18.15-.24.27-.24.48 0 .34.09.52.53 1.01.19.21.35.42.35.46 0 .04-.09.25-.2.47-.32.64-.28.8.41 1.53.24.26.43.53.43.63 0 .3-.15.48-.4.48-.34 0-.47.3-.29.69.1.21.11.29.04.32-.75.26-.91.34-1.02.54-.16.28-.06.45.39.66.26.12.33.19.3.3l-.09.29c-.07.24.22.46.74.56 1.09.21 1.11.21 1.08.33-.1.38.08.6.56.68.47.08.51.14.32.45-.57.93.47 1.71 1.47 1.1.34-.21.4-.2.91.17.66.47.94.45 1.54-.12.25-.24.52-.44.58-.44.19 0 .45.33.59.74.12.34.12.43 0 1.04-.14.77-.16 1.44-.04 1.66.05.08.26.25.48.38.22.12.42.26.44.31.12.33-.56 1.44-.96 1.57-.35.11-.44.21-.44.47 0 .17.05.25.17.3.16.06.16.08-.12.24-.24.15-.29.22-.27.4.03.24 0 .23 1.38.5 1.1.21 1.49.36 1.49.57 0 .29-.15.44-.6.63-.31.13-.48.25-.56.42-.12.22-.09.54.04.54.03 0 .04.1.02.23s.04.39.13.6l.16.37h-.35c-.66 0-.97.26-.76.64.07.14.06.16-.07.16-.09 0-.22.09-.28.19-.11.17-.11.22-.01.46.24.58 1.13 1.08 2.12 1.2.81.1.82.1.76.37-.03.13-.01.26.03.29.05.02.06.12.04.21-.06.21.47.71.9.86.17.06.54.21.82.33.43.19.5.25.5.44 0 .13-.08.27-.2.37-.3.23-.27.55.08.84l.27.22-.2.53c-.18.49-.22.53-.49.6-.4.1-.51.41-.45 1.27l.05.64-.75.39c-1.2.62-1.7 1.06-1.7 1.49 0 .14.128.38.33.64.27.33.32.45.258.56-.13.25-.21.25-.69 0-.5-.27-.57-.28-.86-.15-.2.09-.3.32-.4.89-.06.37-.17.42-1.13.49-.94.07-1.15.15-1.52.53-.33.34-.44.39-.44.21 0-.17-.275-.37-.51-.37-.59 0-.96.37-1.05 1.05-.02.2-.06.47-.09.62-.03.19-.21.45-.63.89-.66.71-.793 1.06-.67 1.72.145.79.39.97 1.23.89.58-.05.59-.05.74.17.37.55.45 1.15.19 1.46-.13.16-.25.19-.99.25-1.25.09-1.5.27-1.4 1.04.02.17.03.31.01.31-.02 0-.27-.22-.55-.48-.49-.45-.54-.48-.9-.48-.31 0-.51.07-1.06.4-.38.22-.77.4-.88.4-.11 0-.54-.11-.96-.24-1.02-.32-1.52-.32-1.69.01-.07.12-.04.25.16.6l.25.44-.67-.05c-.64-.05-.67-.05-.85.15-.16.17-.2.31-.23.8-.04.54-.06.6-.27.72-.22.13-.23.13-.34-.09-.06-.12-.17-.48-.25-.8-.27-1.12-.68-1.4-1.24-.86-.38.38-.43.35-1.24-.58-.68-.78-1.05-1.09-1.45-1.23-.42-.14-.62.04-.83.72-.16.55-.17.56-.42.56-.523 0-.564.24-.213 1.26.13.38.24.75.24.83 0 .22-.19.31-.91.43-.77.12-1.19.36-1.68.93-.16.19-.3.29-.33.24-.03-.05-.37-.09-.84-.09-.44 0-.81-.03-.84-.078-.03-.04.04-.21.16-.38.23-.34.25-.52.08-.7-.2-.2-.35-.15-.72.25l-.34.37-.43-.1c-.24-.05-.78-.22-1.2-.36-.87-.29-1.16-.28-1.3.04-.05.12-.1.23-.11.24-.01.02-.24-.165-.52-.41-.77-.67-1.2-.84-1.43-.57-.07.09-.08.19-.02.39l.08.27-.31-.05c-.3-.04-.337-.02-.73.4-.43.46-.656.58-.88.5-.1-.04-.12-.1-.08-.22.15-.46-.05-.69-.59-.69-.466 0-.57-.07-.926-.58-.34-.5-.55-.62-1.06-.62-.77 0-1.177.34-1.34 1.14-.068.3-.137.56-.16.58-.02.02-.23.09-.47.15-.5.13-3.21.16-3.54.04-.2-.08-.21-.1-.187-.69.02-.58.01-.616-.2-.8-.36-.31-1-.24-1.604.184-.39.27-.53.6-.53 1.21 0 .63-.07.68-.77.56-.76-.13-.95-.07-1.17.4-.24.52-.35.58-.75.42zM71.01 53.27c.18-.144.183-.173.106-.73-.075-.543-.07-.58.08-.637.088-.032.414-.01.725.05.94.178 1.21.06 1.66-.74.26-.455.3-.478.97-.54.44-.04.62-.16.62-.404 0-.16.04-.17.54-.15.4.02.61-.01.8-.11l.26-.14.51.35c.88.61 1.43.73 1.43.3 0-.09.07-.16.18-.18.34-.05.36-.23.15-1.25-.24-1.22-.21-1.34.38-1.59.76-.33.85-.39 1.04-.67.34-.51.17-1.26-.32-1.42-.1-.03-.37-.13-.6-.21l-.42-.16.05-.33c.07-.52-.14-.69-.89-.71-.25-.01-.57-.04-.7-.06-.24-.05-.24-.06-.24-.61 0-.53-.01-.56-.24-.7-.16-.09-.52-.16-1.04-.21-.77-.07-.8-.07-.82-.27-.04-.41-.1-.55-.22-.6-.22-.08-1.12.19-2.27.67-1.78.76-1.72.74-2.32.68-.48-.05-.55-.03-.71.12-.18.18-.2.45-.09 1.04.04.19.05.4.03.46-.06.16-.36.21-.73.11-.26-.08-.36-.16-.49-.41-.2-.41-.31-.45-.82-.32-.7.18-2.21 1.15-2.21 1.42 0 .3.11.35.49.25.34-.1.37-.09.73.15.47.32.75.71.65.88-.04.06-.26.19-.47.27-.22.08-.49.24-.59.35-.17.16-.18.22-.1.39.08.17.15.21.42.21.35 0 .44.1.65.76.18.55.37.76.7.76h.28l-.29.33c-.52.57-.29 1 .58 1.09.28.03.5.09.5.13 0 .04-.09.18-.2.31-.21.25-.26.53-.11.67.06.06.05.11-.04.19-.28.23-.01.61.71.98.47.24.67.29 1.18.3.33 0 .5-.04.64-.15z" class="kraj"/></a><a xlink:href="#"><path id="ustecky-kraj" fill="#31313D" stroke="#FFF" d="M39.18 45.836c-.22-.774-.59-1.02-.94-.624l-.174.196-.16-.2c-.17-.212-.348-.255-.694-.167-.19.05-.223.03-.304-.21-.05-.15-.193-.41-.32-.59-.222-.3-.223-.31-.075-.44.2-.17.194-.44-.01-.65l-.164-.17.2-.13c.17-.11.2-.19.2-.51 0-.69-.68-2.18-1.04-2.3-.18-.05-.21-.16-.09-.24.18-.11.06-.41-.33-.78l-.41-.39.2-.16c.18-.14.2-.22.2-.65 0-.59-.2-.99-.51-1.03l-.2-.02.35-1.08c.52-1.58.47-2.26-.21-2.83-.36-.3-.99-.29-2.13.04-.93.27-1.49.33-1.64.18-.07-.07-.05-.22.08-.62.19-.58.16-.71-.2-1-.54-.42-2.16-.72-2.87-.52-.87.24-.9.24-1.21-.07-.34-.34-.35-.44-.06-.5.82-.17 1.28-.44 1.66-.99.36-.52.44-.85.44-1.91 0-.97.14-1.62.34-1.62.04 0 .26.1.49.23.75.43 1.17.39 1.79-.16l.28-.25.11.21c.07.14.26.26.55.37 1.51.57 1.98.18 2.68-2.21.47-1.61.69-2.1.92-2.1.31 0 .43.09.43.32 0 .12.07.32.16.43.14.18.23.21.57.21.81 0 1.13-.39 1.05-1.26l-.05-.49.31-.06c.92-.15 1.07-.31 1.07-1.1 0-.71.1-.68.53.15.47.88 1.31 1.56 1.93 1.56.56 0 1.45-.68 2.02-1.53.37-.55.4-.74.15-1.01l-.18-.19.42-.38c.67-.6.7-.98.14-1.72-.15-.18-.18-.29-.12-.33.05-.03.44-.08.87-.11.69-.05.88-.1 1.69-.46 1.31-.57 1.32-.57 1.83-.17.73.58 1.11.56 1.4-.07l.16-.35.52.05c.29.02.79.12 1.12.21.33.09.92.18 1.31.21.82.06 1.05-.02 1.2-.42.08-.23.12-.25.32-.21.45.09.58-.16.78-1.56.08-.54.18-1.02.23-1.07.05-.05.14-.04.26.05.44.31.89.12 1.5-.6.24-.28.52-.56.63-.61.18-.1.22-.09.48.12l.45.36c.31.25.55.25.9.02.17-.12 1.07-.52 2-.89 1.8-.72 3.13-1.35 3.52-1.66.21-.17.24-.25.27-.76l.03-.56.37-.08c.2-.05 1.09-.12 1.97-.16 2.21-.1 2.68-.28 2.97-1.15.36-1.08-.23-1.73-1.85-2.02-.39-.07-.82-.18-.94-.25-.23-.12-.22-.27.03-.27.23 0 .48-.37.48-.72 0-.54-.49-.72-1.12-.4-.36.19-.55.2-.83.07-.24-.11-.2-.28.23-1.02.43-.74.49-.99.28-1.34-.19-.33-.12-.56.21-.64.18-.04.25 0 .45.24.38.47.62.56 1.34.5l.62-.05.31.47c.29.44.33.46.68.49.33.02.41-.01.81-.35.24-.2.48-.36.54-.36.05 0 .23.11.4.25.3.25.52.33 1.34.5.38.07.42.1.42.29 0 .12.04.26.09.31.13.14.51.12.74-.03.17-.11.21-.11.39.01.11.07.31.3.45.51.33.51.29.79-.26 1.68-.69 1.1-.77 1.42-.47 1.91.3.49.73.42 2.06-.38.76-.45.77-.13.05 1.27-.5.95-.54 1.05-.55 1.58-.01.31-.06.64-.12.75-.09.17-.14.18-.49.14-.78-.11-.97.15-.97 1.31 0 .53-.03.72-.12.8-.17.14-.95.06-1.46-.16-.35-.16-.41-.21-.43-.43-.02-.24-.04-.25-.47-.3-.54-.06-.96.03-1.1.22-.22.31-.2.51.09 1.08.16.31.29.57.29.6 0 .02-.19.13-.43.23-.5.22-.61.45-.54 1.15.03.4.03.42-.16.42-.27 0-.88.4-1.15.76-.25.32-.28.57-.16 1.29l.06.4-.41.29c-.48.33-.6.58-.55 1.09.08.81 2.66 6.53 3.05 6.73.09.04.3.06.47.04.27-.04.32-.02.42.17.24.48.23.54-.11.64-.65.2-.7.59-.21 1.65.15.34.28.7.28.8v.18l-.6-.21-.59-.21-.22.17c-.22.16-.23.2-.22.82 0 .36-.03.65-.07.65-.04 0-.25-.16-.47-.37-.37-.34-.42-.36-.72-.32-.63.08-.72.47-.31 1.42.19.46.26.75.3 1.29.05.79 0 1.04-.22 1.27-.2.19-.73.21-1.36.04-.61-.16-1.32-.17-1.56-.01-.11.07-.27.33-.38.61-.21.54-.3.64-.82.36-1.15-.62-1.34-.7-1.47-.62-.07.05-.15.19-.16.32-.02.13-.07.26-.12.29-.05.03-.4.06-.77.06-.78 0-2.74-.37-3.33-.63-.49-.22-.86-.21-1.38.03-.44.2-.74.57-.75.9 0 .1.09.38.2.63.11.25.19.47.17.48-.02.02-.24-.05-.48-.14-.43-.16-.46-.16-.65-.04-.23.15-.25.26-.11.57.12.27.1.28-1.03.64-1.15.37-1.43.6-1.51 1.26-.1.82-.51.94-.84.25-.27-.56-.38-.66-.67-.66-.36 0-.69.27-1.28 1.05-.28.37-.6.71-.7.77-.45.22-.84.29-1.4.24-.82-.07-.86-.09-.8-.46.05-.25.03-.312-.11-.39-.26-.14-.51.08-1.25 1.08-.84 1.13-.96 1.2-1.92 1.078-.62-.08-.72-.08-1.19.08-.66.22-1.21.58-1.51 1-.23.31-.24.36-.19.85.02.29.07.64.1.79.04.26.04.264-.13.18-.39-.21-.65.14-.65.88v.3l-.34-.12c-.69-.24-.98-.12-1.29.543-.17.355-.65.86-.81.86-.03 0-.1-.207-.18-.46z" class="kraj"/></a><a xlink:href="#"><path id="liberecky-kraj" fill="#31313D" stroke="#FFF" d="M76.753 27.25c-.008-.033-.017-.378-.02-.767-.005-.642-.023-.72-.195-.86-.278-.226-.404-.192-.775.207-.185.198-.356.36-.38.36-.024 0-.122-.126-.217-.28-.31-.503-.75-.45-1.043.125-.09.176-.195.3-.234.277-.04-.024-.17-.304-.29-.623-.3-.79-.44-.93-.95-.96l-.41-.03-.69-1.37c-.82-1.63-2.01-4.51-2.07-4.97-.04-.3-.02-.35.22-.52.68-.52.74-.61.69-1.06-.03-.23-.07-.53-.1-.67-.05-.21-.01-.3.21-.55.14-.17.36-.35.48-.41.19-.1.23-.1.32 0 .05.06.19.11.31.09l.2-.03v-.83c0-.54.03-.84.09-.86.05-.02.25-.11.44-.21.32-.17.35-.21.37-.52.02-.27-.03-.44-.23-.79-.14-.24-.23-.49-.21-.56.08-.22.49-.14.78.15.31.3 1.04.6 1.64.67 1.04.11 1.31-.16 1.31-1.27 0-.95-.01-.94.55-.89.45.04.47.04.69-.24.21-.27.23-.28.4-.17.1.07.6.16 1.19.22 1.02.1 1.25.19 1.25.45 0 .45.24.64 1.07.84.92.21 1.5.12 1.91-.33.22-.25.32-.52.49-1.44.16-.86.27-.96 1.07-.99.45-.02.88.03 1.58.18 1.32.29 2.05.34 2.62.17.53-.15.78-.42.78-.83 0-.15-.15-.64-.33-1.09-.23-.57-.32-.88-.29-1.06.02-.14.22-.57.44-.96.49-.87.58-1.3.34-1.76-.31-.61-.78-.8-1.07-.43-.12.15-.17.16-.27.08-.29-.24 0-.83.6-1.25.31-.22.38-.24 1-.22.78.02 1.77.31 1.72.5-.19.69 0 .91.87 1 .58.06.9-.02.88-.24-.04-.49-.11-1.12.34-1.23.17-.04-.16.9-.11 1.3.07.5.78.49 1.62.04.33-.18.63-.32.65-.32.02 0 .04.14.04.32 0 .46.22.66.7.63.34-.03.38-.01.55.24.27.39.25.74-.06 1-.34.29-.47.58-.47 1.09 0 .92.33 1.84.95 2.62.43.54.91.86 1.47.97.32.06.5.15.57.27.07.12.12.56.14 1.49.04 1.58.13 1.86.58 1.99.51.14.79-.06 1.28-.9.17-.29.38-.56.47-.59.38-.13.83.03 1.75.62.35.23.73.44.86.49.19.06.23.13.27.45.08.52.21.72.7 1.05.41.27.44.31.46.66.01.21-.05.69-.14 1.07-.27 1.11-.24 1.42.2 2.11l.37.58-.29.26c-.47.44-.35.75.49 1.28.19.11.34.27.34.34 0 .08-.15.33-.34.58-.46.6-.53.73-.53.98s.11.35.45.42c.24.05.25.06.18.29-.11.37.07.68.67 1.21.81.71.81 1.02-.01 1.02-.41 0-.46-.03-.7-.29-.24-.26-.29-.28-.57-.23-.16.03-.48.14-.7.24-.67.31-.81.26-1.27-.45-.38-.6-.59-.78-.77-.67-.09.06-.13.17-.11.37.02.27 0 .29-.28.37-.17.04-.35.08-.39.08-.19 0-.51.33-.56.59-.03.17.01.46.11.81.15.49.16.57.05.73-.15.24-.66.39-.97.29-.21-.07-.23-.13-.31-.6-.04-.29-.13-.58-.19-.65-.2-.24-.57-.11-.57.2 0 .21-.07.18-.4-.21-.4-.46-1.37-.86-2.22-.92l-.58-.04-.3.31c-.17.17-.4.5-.53.73-.12.23-.28.44-.35.47-.25.09-.75-.14-1.45-.68-.86-.66-.93-.7-1.41-.77-.58-.09-.85-.32-1.11-.92-.12-.29-.31-.62-.42-.74-.17-.2-.25-.22-.68-.22-.57 0-.64-.07-1.01-.98-.25-.58-.6-.98-.95-1.06-.31-.07-.83.08-.98.29l-.13.18-.16-.2c-.6-.76-1.01-.98-1.46-.81-.33.13-.41.43-.27 1.03.11.47.11.52-.02.65-.08.07-.37.18-.65.24-.28.05-.67.17-.86.26-.27.13-.34.2-.34.37 0 .11.07.3.15.41.21.26.2.34-.04.64-.3.36-.59.33-1.27-.12-.72-.49-1.03-.61-1.37-.55-.55.1-.65.49-.4 1.47.07.27.11.52.09.54-.02.02-.11-.01-.2-.05-.23-.13-.53-.11-.66.04-.06.07-.13.34-.15.58l-.04.45-.36.07c-.41.08-.64.25-.64.47 0 .18-.03.18-.68.02-.64-.16-.93-.11-1.43.25-.4.28-.52.33-.54.22z" class="kraj"/></a><a xlink:href="#"><path id="pardubicky-kraj" fill="#31313D" stroke="#FFF" d="M132.972 68.906c-.306-.364-.642-.74-.747-.838-.287-.265-.826-.47-1.654-.625-.96-.183-1.16-.324-1.57-1.118-.39-.778-.63-.923-1.88-1.166-1.37-.27-1.42-.29-1.52-.6-.05-.15-.14-.3-.22-.32-.07-.03-.41.04-.76.16-.47.16-.66.19-.73.12-.05-.05-.22-.35-.37-.67l-.28-.58-.59-.06c-1.12-.1-1.1-.1-1.37-.68-.21-.46-.26-.52-.46-.52-.34 0-.54.27-.76 1.04-.18.67-.19.68-.43.65-.34-.03-.46.14-.4.59l.05.36h-.44c-.4 0-.47-.03-.78-.32-.18-.18-.58-.43-.87-.57-.29-.14-.61-.34-.71-.44l-.17-.19.25-.44c.14-.24.25-.51.25-.6 0-.23-.31-.29-.52-.1l-.17.16-.51-.44c-.57-.5-.73-.56-1.24-.49-.38.05-.4.03-.23-.27.19-.32.15-.62-.09-.77-.18-.12-.27-.13-.76-.04-.3.05-.59.07-.64.04-.04-.03-.2-.24-.35-.48-.7-1.1-1.8-1.43-3.25-.97-.38.12-.76.21-.84.19-.09-.02-.2-.18-.3-.46-.13-.37-.22-.48-.72-.83-.31-.22-.86-.57-1.22-.78l-.65-.37-.05-.52c-.07-.65.02-.92.31-.96.12-.02.25-.07.29-.13.1-.12.57-1.38.57-1.53 0-.06-.12-.22-.26-.36-.17-.16-.23-.27-.17-.31.16-.1.27-.4.27-.7 0-.41-.3-.67-1.12-1-.38-.15-.78-.34-.9-.42-.22-.15-.22-.16-.1-.44.15-.37.15-.67 0-.67-.07 0-.12-.03-.12-.06 0-.12-.43-.26-1.08-.34-.36-.04-.84-.17-1.09-.28-.42-.19-.8-.47-.8-.6 0-.03.19-.05.43-.04.27.01.48-.03.56-.1.15-.12.18-.45.06-.53-.13-.09-.09-.16.16-.26.21-.08.24-.13.24-.37 0-.15-.05-.41-.12-.56l-.12-.29.3-.03c.24-.02.31-.06.33-.21.04-.22-.1-.4-.32-.43-.26-.04-.25-.2.04-.3.23-.08.28-.07.37.05.54.77.67.72 2.34-.79.98-.89 1.69-1.43 1.74-1.31.02.04.09.2.17.35.13.25.18.28.53.3.24.01.58-.04.88-.14.69-.24.91-.22 1.41.13.38.26.5.3.85.29.48-.01.95-.23 1.42-.65.32-.29.33-.31.28-.71-.04-.37-.02-.43.17-.61.31-.28.55-.39.87-.39.45 0 .51.1.49.83l-.02.64.31.27c.66.56 1.1.42 2.33-.75.92-.89 1.18-1.02 1.87-.95.51.05 1.26.39 1.42.64.06.09.17.51.23.92.19 1.19.4 1.38 1.35 1.23.69-.11.78-.06.78.43 0 .24.06.41.19.56.16.19.23.21.68.2.47-.01.51.01.71.25.7.83.67.81 1.26.86l.55.04.24.48c.18.35.3.5.44.53.31.08.65-.05.98-.38.17-.16.31-.28.33-.26l.16.26c.18.29.41.28.9-.03l.39-.26.54.3c.62.34 1.04.38 1.22.13.16-.22.1-.41-.23-.73-.15-.14-.28-.31-.28-.36 0-.05.22-.17.49-.26s.56-.23.64-.3c.22-.2.19-.55-.07-.74-.21-.16-.22-.16-.06-.29.09-.07.77-.44 1.52-.82 2.2-1.12 2.36-1.25 2.36-1.99v-.52h.27c.32 0 .68.12 1.73.57.62.27.81.39 1.01.66.34.47.89.87 1.98 1.42.86.43.99.48 1.45.48.82 0 1.01-.19 1.63-1.59.17-.38.22-.42.67-.59.64-.23.89-.55 1.11-1.38.23-.87.44-1.32.74-1.63.28-.3.46-.33.64-.12.11.12.09.27-.18 1.42-.49 2.08-.6 2.41-.86 2.48-.51.13-.56.47-.14 1.02.15.2.28.39.28.43 0 .04-.16.2-.36.37-.48.4-.49.66-.04 1.2.18.22.32.44.32.49 0 .06-.31.31-.68.56-.77.51-.89.65-.97 1.15-.03.19-.1.36-.16.38-.06.02-.29-.02-.51-.09-.22-.08-.5-.13-.62-.11-.22.02-.22.03-.21.51.02.64.22 1.29.99 3.09.6 1.41.88 2.22.88 2.56 0 .09-.1.19-.28.27-.68.29-.76.74-.35 2.12.35 1.19.63 1.71 1.28 2.44.31.35.67.8.8 1l.23.36-.36.31c-.39.33-.46.58-.23.81.16.15.4.16.84 0 .19-.07.39-.11.44-.09.06.02.16.23.23.46.12.4.12.45-.09 1.27-.2.8-.23.87-.48 1-.6.32-.71.72-.38 1.35.11.21.18.41.15.46-.02.04-.09.32-.14.63l-.09.55-.92-.37c-.51-.2-1.26-.45-1.68-.57-.72-.19-.87-.2-2.9-.21-2.63-.01-2.48-.08-2.54 1.18-.05.97-.07.99-.85.61-.64-.31-.93-.29-1.51.12l-.4.28-.11-.22c-.14-.28-.23-.34-.5-.34-.35 0-.63.3-.68.74-.03.21-.08.39-.11.42-.04.02-.32-.26-.62-.62z" class="kraj"/></a><a xlink:href="#"><path id="kralovehradecky-kraj" fill="#31313D" stroke="#FFF" d="M126.318 47.002c-.265-.525-.477-.65-1.104-.65-.303 0-.387-.038-.57-.256-.116-.142-.347-.4-.513-.572-.3-.314-.3-.314-.78-.264-.53.056-.51.075-.59-.534-.03-.227-.12-.454-.21-.55-.15-.152-.22-.16-.9-.11l-.73.053-.09-.22c-.05-.12-.13-.49-.18-.82-.11-.8-.16-.91-.54-1.24-.46-.4-1.05-.59-1.77-.59-.79 0-1.1.17-2.08 1.12-.71.69-1 .92-1.19.92-.04 0-.19-.1-.33-.22-.25-.21-.25-.23-.2-.72.09-.85-.26-1.21-1.11-1.14-.29.02-.54.11-.75.25-.46.3-.61.57-.61 1.09 0 .42-.01.45-.32.66-.18.12-.49.26-.69.32-.36.09-.37.09-.83-.24-.54-.39-.92-.43-1.64-.19-.89.3-.86.3-1.04-.14-.09-.22-.23-.42-.31-.45-.23-.07-.9.33-1.65 1-1.39 1.23-1.9 1.67-1.95 1.68-.12 0-.36-.53-.3-.68.03-.09.06-.29.07-.46 0-.23-.04-.33-.22-.45-.27-.2-.79-.37-1.46-.5-.28-.05-.55-.13-.59-.16-.04-.04 0-.16.07-.28.12-.18.12-.25.05-.42-.08-.18-.06-.24.19-.54.55-.67.82-1.46.64-1.92-.02-.07-.23-.24-.45-.38s-.43-.33-.46-.43c-.04-.1-.02-.43.05-.81.22-1.2.12-1.87-.35-2.4-.44-.5-.77-.47-1.42.13-.28.26-.55.48-.58.48-.04 0-.25-.13-.46-.28-.64-.46-.85-.49-1.35-.25-.47.23-.62.25-.85.13-.2-.1-.19-.24.01-.64.09-.17.16-.37.16-.44 0-.21-.36-.5-.7-.55-.29-.05-.32-.07-.24-.21.21-.39-.08-.59-1.11-.75-.37-.06-.68-.13-.7-.14-.01-.02.01-.13.05-.25.11-.29-.01-.57-.31-.69-.31-.13-.28-.24.12-.38.56-.2.74-.51.52-.91-.07-.13-.05-.16.08-.16.33 0 .65-.7.53-1.17-.03-.12-.27-.44-.53-.72-.26-.29-.48-.55-.48-.59 0-.04.09-.28.21-.52.26-.58.22-.8-.29-1.39-.21-.25-.39-.51-.39-.59 0-.15.31-.44.57-.52.18-.05.4.07.95.53.71.59 1.39.82 1.85.63.17-.07.34-.26.57-.67.18-.31.39-.61.46-.67.19-.14.68-.12 1.24.07.7.23 1.03.43 1.29.8.25.33.59.5.79.39.1-.06.14-.01.18.24.06.35.14.43.55.56.43.14 1.1-.01 1.42-.31.29-.27.32-.62.11-1.38l-.13-.49.18-.15c.1-.08.25-.15.34-.15.08 0 .28-.05.44-.12l.28-.12.38.4c.33.36.41.4.7.4.19 0 .58-.1.92-.25.36-.15.6-.21.62-.16.02.05.1.18.19.29.14.18.21.2.72.2.86 0 1.27-.24 1.27-.74 0-.28-.26-.65-.85-1.2-.5-.47-.52-.51-.44-.73.16-.42-.06-.78-.47-.78-.22 0-.21-.05.1-.43.82-1 .81-1.38-.05-1.92l-.49-.3.3-.29c.25-.25.29-.33.25-.55-.02-.14-.19-.47-.37-.72-.38-.55-.4-.8-.16-1.86.18-.78.2-1.34.07-1.64-.05-.11-.27-.31-.49-.45-.44-.28-.62-.51-.62-.76 0-.16.05-.18.72-.23.66-.05.75-.04 1.14.14.23.11.77.46 1.19.77 1.08.8 1.35.92 2.08.93.64 0 .69-.02 1.92-.68.72-.39.97-.41 1.28-.1.27.27.36.57.51 1.75.18 1.31.46 1.82 1.13 2.05.42.14 1.07.03 2.01-.35.44-.18.95-.35 1.13-.38.65-.1 1.06.32 1.27 1.32.2.94.18 1.01-.27 1.24-.71.36-.84.77-.37 1.21.47.44 1.45.51 1.95.14.36-.28.49-.53.6-1.25.12-.72.22-.96.59-1.36.25-.27.55-.29 1.19-.05.8.3 1.11.51 1.21.86.14.47.33.6.81.55.45-.05.93-.35 1.05-.68.04-.11.07-.44.08-.73 0-.3.02-.58.06-.63.18-.29 1.42-.36 2.18-.14.59.17 1.31.59 1.81 1.05.53.48 2.28 2.68 2.2 2.75-.03.03-.27.11-.52.18-.66.19-.87.59-.58 1.09.15.27.14.32-.07.32-.51 0-.72.56-.32.87.21.17.21.17.07.39-.22.33-.46.58-.7.71-.17.09-.32.09-.81.02-.48-.08-.64-.07-.85.01-.29.12-.48.48-.48.87 0 .25-.12.39-.2.25-.11-.17-.63-.09-1.02.16-.45.29-1.01.89-1.08 1.16-.03.1-.1.19-.16.19s-.2.09-.32.19c-.17.14-.22.28-.25.59-.05.54.1 1.2.36 1.53.18.25.24.27.5.23.16-.02.34-.07.41-.09.16-.07.35.27.8 1.39.19.46.39.9.46.98.27.3.52.14.83-.52.24-.52.62-.69 1.33-.58.46.07.6.3.79 1.27.15.78.32 1.2.58 1.44.14.12.28.15.8.14l.64-.01.83.82c1.28 1.27 2.69 3.13 3.13 4.11.13.3.51 2.73.44 2.8-.02.02-.38-.12-.81-.3-.54-.21-.96-.33-1.32-.36-.72-.06-.81.03-.81.77v.54l-.34.25c-.19.14-.86.5-1.5.81-1.33.64-2.21 1.2-2.29 1.45-.04.13 0 .22.19.4.14.12.25.24.25.26 0 .02-.18.09-.4.16-.84.28-1.02.67-.56 1.2.27.31.26.31-.49-.06-.24-.12-.48-.22-.53-.22-.05 0-.26.09-.46.2-.46.25-.45.25-.45.01 0-.25-.19-.4-.42-.34-.1.03-.41.23-.69.45-.27.22-.51.4-.53.4-.02 0-.14-.21-.27-.47z" class="kraj"/></a><a xlink:href="#"><path id="olomoucky-kraj" fill="#31313D" stroke="#FFF" d="M158.008 83.2c-.043-.114-.118-.466-.167-.782-.12-.827-.35-1.362-.68-1.66-.36-.32-.59-.413-1.61-.673-.94-.24-1.45-.524-1.45-.818 0-.106.13-.43.28-.722.31-.582.36-1.002.16-1.382-.21-.417-.77-.444-.84.004-.12.83-.26.964-.32-.093-.01-.152-.09-.353-.14-.45-.09-.168-.52-.342-.84-.343-.13 0-.14-.04-.09-.6.07-.73-.01-.9-.59-1.19-.47-.24-.47-.24-.56-.81-.09-.55-.28-.78-.82-.95-.56-.18-.81-.11-1.78.53-1.01.67-1.07.82-.46 1.2.21.14.41.24.46.24.29 0 .93.79 1.05 1.29.05.18.02.23-.19.31-.34.14-.43.34-.36.86.05.4.03.47-.17.73-.29.39-.43.49-.66.5-.33.01-1.02-.41-1.5-.89-.44-.44-.45-.46-.35-.7.07-.17.17-.25.35-.29.86-.18.81-.8-.1-1.28-.17-.09-.25-.23-.39-.71-.1-.33-.2-.87-.22-1.2-.04-.55-.03-.6.11-.6.28 0 .39-.14.43-.57.04-.42.05-.42.34-.45.28-.02.3-.04.3-.26v-.24h-1.02c-1.17 0-1.55-.08-1.87-.4-.19-.19-.23-.29-.23-.63 0-.43.25-1.04.43-1.04.06 0 .23.11.38.23.55.45.98.54 1.24.26.15-.16.27-.96.28-1.81 0-.48.01-.49.24-.54.13-.03.24-.1.24-.16s-.14-.38-.32-.72c-.18-.33-.32-.65-.32-.71 0-.06.15-.19.32-.29.43-.24.5-.37.75-1.39.19-.76.2-.91.12-1.24-.19-.78-.5-1.12-.95-1.03-.27.06-.28.04-.11-.28.12-.22.12-.26-.07-.65-.11-.23-.47-.72-.81-1.1-.33-.37-.71-.88-.84-1.12-.3-.58-.82-2.3-.76-2.53.02-.1.21-.26.46-.4.39-.2.42-.25.45-.53.04-.42-.25-1.32-.98-3.03-.49-1.17-.92-2.42-.92-2.71 0-.03.15-.01.33.06.71.25 1.07.08 1.18-.54.09-.47.14-.53.84-1 .75-.5.85-.61.85-.93 0-.2-.08-.38-.32-.66-.17-.21-.32-.43-.32-.48 0-.05.13-.18.28-.27.55-.34.6-.79.15-1.28-.16-.17-.28-.33-.26-.34.02-.01.15-.07.29-.12.23-.09.28-.17.46-.76.2-.64.38-1.38.65-2.62.12-.54.16-.62.31-.62.31 0 .52-.22.66-.7.07-.25.18-.5.24-.55.07-.06.36-.08.81-.06.82.04 1.06-.05 1.17-.43.04-.14.1-.26.13-.26s.14.19.24.41c.13.3.25.44.42.51.28.12.68.04.83-.16.05-.07.11-.52.14-1.02.09-1.46-.18-2.82-.64-3.25-.12-.11-.47-.26-.89-.37-.38-.1-.75-.24-.83-.31-.23-.21-.37-.58-.68-1.75-.3-1.19-.58-1.82-.86-2-.1-.06-.4-.18-.68-.25-.58-.16-.71-.31-.58-.71.13-.39.53-.98.76-1.13.25-.17.36-.12 1.15.53 1.04.84 1.43.96 1.82.55.26-.27.3-.26.93.15.74.49 1.06.58 1.82.52.36-.03.73-.03.82-.01.09.03.25.21.36.4.45.77.88.91 1.77.61.25-.09.49-.16.53-.16.04 0 .04.16.02.36-.06.45.12.74 1.02 1.59 1.14 1.1 1.72 1.24 2.87.73l.67-.3.17.17c.19.19.21.56.09 1.99-.07.91-.02 1.06.37 1.06.2 0 .24-.04.35-.44l.12-.44h.56c.76 0 .88.07.88.54 0 .21.05.45.11.53.15.23.21.52.22 1.12.01.77-.07.82-.67.43-.54-.35-.61-.36-.94-.19-.16.09-.27.25-.39.57-.09.24-.17.48-.17.52 0 .05-.06.19-.13.32-.11.22-.15.24-.58.24-.52 0-.7.1-1.38.69-.59.53-.96.95-1.27 1.44-.29.48-.3.67-.09 1.14.09.2.16.38.16.42 0 .04-.16.18-.36.32-.33.23-.36.28-.36.6 0 .2.1.61.24.95.3.76.28.83-.55 1.69-.99 1.03-1.53 2.01-1.53 2.79 0 .55.14.75.92 1.31.37.26.52.42.52.55 0 .12-.19.36-.56.7-.62.58-.7.8-.36 1.08l.2.16-.4.59c-.44.65-.48.87-.28 1.48.23.67.97 1.34 1.48 1.34.11 0 .32-.14.53-.37.2-.2.38-.34.4-.32.03.03-.03.27-.13.55-.42 1.16-.1 1.65.76 1.14.42-.24.44-.23 1.44.39.74.47 1.21.64 1.46.56.08-.03.28-.2.44-.38l.3-.33.26.24c.14.13.5.6.8 1.04.59.87 1.07 1.37 1.42 1.46.12.03.42.01.66-.05.93-.22.93-.22 1.38.19.48.44.71.51.99.33.14-.09.2-.2.2-.39 0-.54.1-.52.8.09.61.54.68.58 1.03.58s.41-.03.75-.4c.33-.34.42-.4.69-.4.59 0 1.44.45 1.75.92.12.18.11.24-.14.96-.23.69-.25.79-.16 1.08.13.44.51.84.92 1 .49.19.7.14.89-.22.09-.16.2-.29.24-.27.05.01.22.36.38.78.36.88.62 1.26.93 1.33.76.17.85.22 1.45.79.34.33.7.73.79.91l.17.31-.32.3c-.37.35-.41.65-.16 1.07.14.22.21.26.47.26.25 0 .39-.07.78-.4.27-.22.53-.39.6-.38.4.08.38 2.09-.01 2.24-.06.03-.39-.1-.74-.27-.67-.33-.89-.37-1.12-.2-.12.09-.14.18-.1.51.06.48.04.49-.66.73-.53.17-.96.5-.96.73 0 .07.11.27.24.45l.24.33-.23.09c-.35.15-.47.33-.5.72l-.03.36-.48.15c-.73.22-.91.17-1.22-.3-.46-.73-.54-.8-.85-.8-.42 0-.59.2-.65.76-.03.26-.08.48-.11.48s-.21-.11-.41-.24c-.58-.38-.96-.3-.96.21 0 .19.12.41.44.84.24.32.44.62.44.67 0 .05-.09.18-.2.28-.23.21-.53.23-2.56.17-1.29-.04-1.7.02-1.82.28-.07.16-.05.24.13.51.27.41.27.51-.02.96-.2.31-.69.73-.76.64-.01-.01-.1-.23-.2-.48-.1-.25-.23-.5-.29-.55-.19-.16-.72-.18-1.47-.04-1.05.19-1.06.19-.99-.68.05-.66.04-.71-.12-.79-.46-.25-.97.03-1.3.73-.35.76-.33 1.15.13 1.89.48.77.46.88-.19 1.06-.28.08-.56.19-.62.25-.06.06-.23.39-.38.72-.14.34-.32.69-.38.79-.11.17-.12.18-.51.05-.45-.14-1.6-.17-2.05-.05-.37.1-.48.27-.67 1.02-.08.32-.17.58-.21.58s-.1-.09-.14-.2z" class="kraj"/></a><a xlink:href="#"><path id="jihomoravsky-kraj" fill="#31313D" stroke="#FFF" d="M151.74 115.01c-.135-.1-.14-.18-.08-.982.08-1.065.066-1.482-.08-2.327-.135-.78-.27-1.06-.65-1.35-.437-.33-1.03-.3-2.113.11-.463.18-.95.34-1.08.37-.368.07-.76-.11-1.455-.65-.66-.51-1.092-.73-1.41-.73-.102 0-.357.11-.565.24-.208.13-.414.24-.458.24-.12 0-.22-.31-.32-1.05-.22-1.52-.67-1.88-1.95-1.54-.28.08-.59.11-.7.08-.11-.03-.49-.34-.85-.71-.63-.63-.66-.65-1.03-.66-.38 0-.39.01-.58.35-.19.35-.2.35-.55.31-.24-.03-.47-.13-.73-.33-.21-.16-.41-.29-.45-.29-.25 0-.39.22-.63.94-.4 1.22-.66 1.65-1.53 2.52-.43.43-.82.78-.87.78-.05 0-.15-.11-.23-.24-.27-.48-.42-.63-.66-.63-.28 0-.48.19-.48.44 0 .17-.04.19-.58.24-.88.08-4.03-.1-5.51-.31-1.45-.21-2.03-.39-3.12-.98-1.53-.83-2.49-1.5-2.49-1.75 0-.05.05-.2.13-.35.24-.48-.13-.85-.6-.61l-.24.12-.14-.34c-.08-.18-.19-.4-.26-.47-.16-.17-.57-.18-.78-.01-.15.11-.16.1-.3-.36-.19-.61-.38-.74-.98-.7l-.44.03.04-.32c.03-.26.01-.34-.13-.48-.15-.13-.29-.16-.95-.15-.66 0-.83.03-1.17.2-.34.17-.43.27-.62.66-.27.56-.45.65-1.18.6-.76-.05-1.15-.26-2.15-1.16-1.02-.92-1.4-1.14-2.29-1.32-.35-.07-.65-.15-.67-.17-.02-.02.06-.14.17-.28.25-.3.27-.62.05-.9-.23-.28-.2-.32.17-.27.29.04.36.02.64-.24.17-.16.36-.26.42-.24.06.03.23.23.38.45.31.49.63.64.92.44.22-.14.23-.17.3-.77.05-.41.07-.46.32-.58.32-.15.8-.16.92-.02.04.06.2.28.34.5.2.32.31.41.5.43.34.04.58-.24.83-1l.21-.62.51-.05c.6-.05.72-.16 1.08-.88.24-.5.25-.51.57-.5.17.01.55.04.84.07.46.06.54.04.72-.1.18-.15.2-.21.18-.73-.01-.31.01-.57.04-.57s.18.09.33.2c.15.11.35.2.44.2.19 0 .52-.31.52-.48 0-.34.18-.72.4-.83.36-.19.48-.16.48.14 0 .42.17.64.71.92.52.27 1.07.34 1.36.18.15-.08.27-.34.36-.74.04-.19.07-.21.24-.14.1.04.4.21.65.38.62.41 1.08.41 1.96 0 .86-.4 1.09-.81.69-1.23-.09-.1-.15-.21-.12-.24s.46-.07.96-.1c1.31-.08 1.5-.19 1.5-.9 0-.55.05-.61.44-.61.27 0 .39-.05.55-.22.56-.59.83-1.64.56-2.15-.13-.25-.49-.47-.65-.42-.09.03-.67-.41-.67-.51 0-.04.3-.21.67-.38.74-.34.93-.54.93-.96 0-.55-.44-.96-1.06-.96-.47 0-.53-.53-.15-1.34l.24-.5h.48c.42 0 .5-.02.61-.19.18-.28.02-.57-.53-.94-.31-.2-.43-.34-.41-.44.01-.08.28-.41.59-.73.54-.56.56-.59.52-.9-.05-.38-.02-.41 1.03-.83 1.49-.59 2-1.05 1.91-1.71-.03-.19-.12-.5-.2-.69-.22-.51-.64-2.23-.64-2.61 0-.25.07-.44.33-.82.44-.65.49-1.05.18-1.41-.21-.25-.21-.27-.08-.35.3-.17.78-.66.93-.95.2-.39.2-.95.01-1.19-.08-.1-.4-.31-.7-.47-.56-.29-.56-.3-.56-.62 0-.18.06-.42.14-.53.13-.21.14-.21.37-.08s.24.13.43-.09c.11-.13.2-.33.2-.48.02-.66.26-.89.47-.44.1.22.15.26.38.25.16 0 .45-.13.7-.3.24-.15.48-.28.55-.28.06 0 .34.11.62.24.64.3.94.31 1.2.04.17-.19.2-.3.23-1.02l.04-.82h2.13c2.39 0 2.43.01 4.4.77l.92.35.02.41c.03.56-.1.59-.67.17-.71-.54-1.06-.45-1.4.35-.23.54-.2 1.34.06 1.72.28.39.8.59 1.59.61l.67.02V72c0 .25-.03.294-.26.36l-.26.08.01.76c0 .792.12 1.405.36 1.98.11.25.25.404.56.6l.42.26-.29.08c-.37.102-.6.31-.71.65-.14.43-.03.7.48 1.17.59.55 1.1.85 1.64.96.39.08.45.076.72-.09.16-.1.41-.35.55-.554.23-.34.25-.42.24-.91-.01-.53-.01-.53.22-.582.3-.06.42-.28.35-.66-.13-.73-.61-1.38-1.24-1.7-.26-.13-.47-.26-.47-.3 0-.11 1.31-.9 1.5-.9.27 0 .72.23.77.39.02.07.06.29.09.49.06.38.32.69.84 1.01l.27.167-.03.65c-.03.62-.02.65.19.82.12.1.33.17.48.17.32 0 .36.06.51.75.09.43.17.59.34.71.18.14.35.25.42.07.52-1.37.75-.93.04.32-.27.48-.21.88.05 1.19.28.34.53.45 1.53.72 1.1.3 1.22.35 1.51.63.26.27.37.58.54 1.54l.12.67-.26.33c-.46.58-.57.79-.57 1.17 0 .44.11.72.61 1.57.59 1.01.6 1.03.27 1.34-.31.3-.33.35-.17.57.14.2.54.19 1.13-.03.35-.13.48-.15.57-.08.18.15.13.57-.13 1.09l-.24.48-.52.03c-.77.05-.88.18-.82.97l.04.63-.34-.05c-.64-.1-.89.21-.61.75.16.31.16.32 0 .46-.53.48.49.97 1.37.67.15-.05.55-.27.9-.48.76-.46 1.03-.49 1.21-.15.22.43.24.9.04 1.48-.32.97.03 1.47.69.97.14-.11.3-.2.34-.2.04 0 .17.22.28.48.11.26.29.53.39.6.22.16.8.17 1.59.03.98-.17 1.14 0 .88.91-.09.33-.09.4.03.58.17.25.51.28.98.08.46-.19.62-.1 1 .53.35.6.62.8 1.05.8.28 0 .51-.1 1.21-.56.49-.32.62-.34.62-.08 0 .08.08.22.18.32.15.14.28.18.68.18.27 0 .5.03.5.07 0 .04-.07.24-.16.45-.1.23-.14.45-.11.57.07.27.6.5 1.16.51 1 .01 1.26.23 1.93 1.65.31.67.38.87.3.92-.06.04-.52.38-1.03.76-.87.67-1.69 1.13-2.04 1.16-.43.04-.56-.02-1.07-.51-.77-.74-1.08-.93-1.53-.93-.52 0-.81.21-1.29.92-.51.76-.93 1-1.36.77-.08-.04-.31-.3-.51-.58-.54-.74-.72-.89-1.84-1.42-1.28-.6-1.98-.8-2.84-.8-.61 0-.68.02-.91.22-.13.12-.4.53-.58.9l-.34.68-.63.04c-.55.04-.64.06-.81.26-.31.37-.54 1.08-.56 1.78l-.02.63-.45.26c-.73.42-.95.65-.91.98.03.25-.02.33-.67.98-.89.91-.99 1.16-.68 1.76.25.47.25.49.09.49-.25 0-.58.24-.67.5-.05.14-.12.73-.17 1.3-.04.57-.1 1.17-.12 1.32-.12.69-.48.98-.87.69z" class="kraj"/></a><a xlink:href="#"><path id="zlinsky-kraj" fill="#31313D" stroke="#FFF" d="M174.388 102.62c-.314-.07-.334-.096-.75-.948-.45-.924-.84-1.45-1.208-1.642-.122-.064-.524-.14-.892-.17-.368-.028-.73-.084-.806-.123-.128-.065-.127-.094.02-.436.333-.77.144-1.07-.69-1.07h-.49l-.095-.32c-.068-.22-.15-.33-.287-.36-.276-.07-.487.02-1.177.46-.82.53-.956.52-1.406-.17-.59-.9-.817-1.01-1.56-.74-.208.08-.398.12-.42.1-.024-.02.01-.19.077-.38.193-.54.16-.83-.12-1.07-.34-.28-.695-.33-1.54-.19-.91.15-1.048.11-1.294-.42-.103-.22-.25-.47-.33-.56-.172-.19-.532-.2-.802-.03-.11.08-.214.12-.23.1-.018-.01.04-.23.127-.47.246-.68.1-1.62-.312-2.04-.193-.19-.266-.21-.623-.18-.315.03-.568.13-1.155.49-.6.36-.82.46-1.09.46h-.34l.086-.23c.07-.18.06-.28-.04-.49-.07-.14-.13-.28-.13-.29 0-.01.15 0 .32.03.54.09.76-.23.65-.94-.09-.54-.02-.62.53-.62.51 0 .69-.14 1.03-.8.56-1.09.19-2.03-.7-1.76-.17.05-.36.12-.43.14-.1.04-.1.02-.02-.13.14-.26.06-.49-.52-1.52-.65-1.18-.69-1.36-.36-1.85.36-.54.42-.58.71-.41.22.13.26.13.37.02.07-.06.21-.46.32-.87.12-.41.25-.78.31-.82.17-.11 1.6-.07 2.01.05.64.2.9 0 1.27-.98.25-.66.38-.78.91-.89.85-.18.97-.7.38-1.64-.17-.28-.34-.58-.37-.66-.1-.33.39-1.38.65-1.38.1 0 .11.11.07.63-.05.62-.04.63.17.8.26.21.73.22 1.62.06.73-.13.86-.07 1.09.51.23.59.47.71.95.5.41-.18.62-.4.9-.93.24-.45.27-.77.08-1.06-.11-.17-.11-.21-.02-.28.07-.04.83-.05 1.84-.02 1.49.04 1.76.03 1.97-.08.56-.29.7-.96.3-1.46-.55-.69-.55-.75-.06-.5.56.28.91.02.91-.67 0-.63.23-.58.64.16.41.72.82.8 2 .41.51-.16.73-.33.68-.5-.14-.47-.13-.51.21-.68.5-.25.57-.61.22-1.01-.24-.27-.12-.4.5-.59.73-.22.99-.5.92-.96-.03-.17-.02-.31.01-.31s.29.12.57.28c.9.5 1.38.33 1.58-.57.07-.29.14-.54.15-.56.02-.02.32-.06.67-.08.77-.07.85-.01.98.76.13.74.26.83 1.14.78.54-.03.9-.11 1.76-.4.6-.2 1.23-.4 1.41-.44.31-.07.33-.06.41.16.07.18.14.23.32.23.13 0 .33-.08.44-.16.11-.09.26-.16.33-.16s.29.21.5.48c.2.26.46.54.56.61.27.18.99.16 1.77-.04.36-.1.76-.17.89-.17.37 0 .62.26.86.9.39 1.02.45 1.09 1.44 1.43l.32.11.09.86c.05.47.13.9.18.95.05.06.31.11.56.13l.46.04.23.5.23.5-.14.47c-.21.73-.47 1.11-.98 1.42-.64.38-.86.47-2.97 1.17-1.03.34-2.13.74-2.42.88-.6.29-.7.45-.55.89.05.14.09.26.09.27 0 .01-.22.18-.49.39-.75.58-.76.62-.73 2.9.02 2.19.03 2.17-.58 2.94-.44.56-.45.73-.17 1.57.26.75.25 1.02-.03 1.73-.41 1.05-1.14 1.99-1.81 2.34-.38.2-.6.21-.94.04-.39-.2-1.69-.05-2.56.3-.37.15-.45.43-.57 2.05-.11 1.55-.23 2.05-.54 2.44-.26.33-.54.37-1.63.23-.82-.09-1.03-.1-1.35-.01-.55.16-1.1.74-1.64 1.75-.78 1.47-1.28 2.03-1.77 2.01-.1-.01-.33-.04-.5-.08z" class="kraj"/></a><a xlink:href="#"><path id="jihocesky-kraj" fill="#31313D" stroke="#FFF" d="M68.774 119.132c-.37-.308-1.247-.695-1.863-.823-.33-.07-1.73-.22-3.11-.33-1.38-.11-2.6-.23-2.72-.25-.17-.04-.22-.09-.22-.28 0-.25-.19-.42-.57-.5-.19-.05-.2-.08-.17-.4.04-.39-.04-.5-.48-.65-.36-.13-.33-.24.09-.35.62-.16 1.01-.84.81-1.44-.09-.28-.18-.33-.68-.38-.21-.02-.27-.1-.56-.66-.18-.35-.41-.71-.53-.79-.12-.1-.44-.18-.82-.23-.71-.09-1.03-.29-1.51-.94-.37-.52-1.55-1.65-1.88-1.82-.2-.1-.45-.14-.96-.13-.62 0-.71-.01-.86-.18-.19-.21-.31-.61-.38-1.34-.07-.74-.26-1.35-.44-1.44-.08-.05-.28-.08-.43-.08-.35 0-.42-.12-.57-1.02-.27-1.52-.72-1.86-1.94-1.42-.63.23-.64.23-.81.07-.26-.23-.44-.68-.67-1.66-.11-.48-.28-1.01-.37-1.18-.21-.41-.49-.5-.76-.24-.11.1-.21.16-.23.14-.02-.02-.13-.25-.24-.51-.36-.82-.7-1.06-1.26-.85-.19.07-.19.06-.28-.54-.19-1.25-.08-1.98.41-2.61.11-.15.12-.15.25-.02.18.18.29.17.61-.05.76-.51.82-1.15.21-2.19-.21-.36-.38-.66-.38-.69 0-.02.11-.06.24-.09.36-.07.39-.33.12-1.09-.13-.35-.2-.66-.17-.69.03-.03.21.06.4.2.36.27.81.33 1.04.15.07-.05.24-.28.39-.5.33-.49.37-.52.62-.43.11.04.32.07.47.07.24 0 .3-.04.39-.27.08-.2.09-.37.04-.66-.04-.22-.06-.44-.04-.49.02-.05.2-.14.4-.19.66-.19.68-.59.04-1.38-.21-.27-.39-.57-.39-.67 0-.13.15-.28.56-.55.63-.42.84-.69.76-.94-.05-.15-.11-.17-.47-.15-.39.02-.42 0-.56-.23-.08-.14-.13-.29-.1-.33.02-.04.22-.06.43-.03.64.06.81-.3.53-1.13-.07-.21-.11-.43-.08-.49.02-.07.26-.16.54-.21.76-.15 1.28-.69 1.42-1.48.09-.49-.03-.99-.48-1.96-.26-.56-.35-.86-.35-1.15 0-.41 0-.41.6-.8.48-.3.43-.69-.11-1.08-.2-.14-.36-.32-.36-.39 0-.08.06-.37.13-.66.17-.67.08-.96-.28-.96-.13 0-.24-.02-.24-.05s.1-.23.21-.45c.19-.37.26-.43.8-.68.33-.15.7-.3.82-.32.21-.04.24-.02.37.32.22.59.7.57 1.06-.03.17-.29.29-.3.65-.08.25.15.26.17.14.29-.19.2-.11.37.28.57.25.12.5.18.81.18.51 0 .62-.08.83-.58.13-.33.24-.36.92-.23.78.15 1.13-.19 1.13-1.09 0-.41.03-.5.22-.68.31-.28.52-.38.85-.38.34 0 .39.1.32.63-.06.51.07.84.4.98.41.17 3.48.15 4.07-.03.25-.08.5-.2.56-.26.06-.07.16-.38.23-.7.16-.68.36-.88.9-.9.3-.01.37.02.55.26.57.74.75.89 1.18.94.37.04.4.06.33.18-.13.2-.02.52.22.63.11.05.39.09.62.09.39 0 .42-.02.82-.44.22-.24.44-.44.48-.44.04 0 .17.07.28.16.41.32.76.14.71-.36-.02-.15-.01-.28.03-.28.03 0 .24.16.46.36.78.69 1.22.77 1.32.24.04-.22.08-.28.18-.24.66.26 1.9.6 2.2.62.3.02.38.05.38.16 0 .29.38.42 1.23.42.44 0 .81.03.82.08.01.04.1.19.19.34.13.22.2.26.42.24.25-.03.25-.03.25-.48 0-.37.04-.5.19-.66.27-.29.95-.61 1.29-.61.42 0 .87-.15 1.05-.34.33-.36.29-.72-.22-2.03-.03-.08.01-.12.13-.12.25 0 .54-.33.65-.73.16-.64.16-.64.47-.49.15.07.54.44.86.81 1.09 1.25 1.5 1.44 1.98.92.33-.36.38-.31.61.61.2.76.41 1.17.65 1.25.1.03.3-.01.48-.1l.32-.16.15.3c.2.37.11.48-.4.48-.48 0-.8.23-.8.57 0 .17.12.36.48.75.3.32.48.58.48.7 0 .38-.24 1.26-.62 2.3-.48 1.31-.64 1.96-.67 2.62-.02.61.08.74.74.98.27.1.5.22.53.26.02.04-.14.25-.36.46-.63.58-.56.92.44 2.11.94 1.14 1.31 1.41 1.88 1.41.3 0 .39-.05.8-.44.25-.24.51-.44.58-.44.07 0 .22.15.34.32.51.76.5.75 1.23.8.65.04.67.05.69.25.03.25-.17.35-.59.27-.26-.05-.27-.04-.27.18 0 .29.1.33.79.33.68 0 .86.11.92.58.1.71.4 1.02 1.01 1.02.46 0 .63-.12.82-.53.09-.2.21-.38.27-.41.19-.08.79.13 1.28.43.35.22.44.31.4.44-.02.09 0 .23.04.32.12.21.51.14 1.47-.26.77-.33 1.06-.38 1.33-.24.2.1.2.23-.04 1.03-.24.82-.24.96-.02 1.42.42.84 2.32 2.34 2.97 2.34.15 0 .23-.07.33-.32.16-.4.26-.41.98-.06.42.19.66.26 1 .26.41 0 .49-.04.96-.38.51-.39.67-.44.87-.31.09.06.09.1-.02.26-.17.25-.17.58.01.73.08.07.35.18.6.26.39.12.48.18.59.41.12.26.12.3 0 .56-.14.3-.28.34-.55.19-.42-.22-.63-.23-.83-.03-.18.18-.19.26-.19.91 0 .75-.03.82-.4.82-.08 0-.2.08-.27.18-.1.14-.1.2-.01.43.12.3.08.36-.62.83-.47.32-.64.56-.6.9l.03.26.58-.02c.55-.02.58-.01.5.13-.24.45.03.75.87.92.81.17 1.13.31 1.13.51 0 .13-.06.16-.28.16-.51 0-.68.44-.37.92.09.13.16.26.16.29 0 .03-.13.19-.3.34-.48.46-1.01.37-1.11-.17-.08-.44-.23-.69-.6-1.02-.46-.39-1-.54-1.71-.48l-.56.05-.52-.37c-1.21-.85-1.58-1.08-1.88-1.17-.29-.08-.38-.07-.84.11-.28.12-.52.21-.53.21-.02 0-.16-.18-.32-.4-.25-.35-.33-.4-.57-.4-.4 0-.57.31-.64 1.19-.03.38-.09.73-.13.78-.05.07-.18.06-.52-.06-.77-.26-1.02-.2-1.75.4-.22.18-.44.33-.49.33-.17 0-.2-.3-.07-1.01.27-1.56-.21-1.94-2.22-1.76l-.7.07v-.33c0-.36-.15-.51-.65-.65-.41-.12-1.54-.11-1.8.02-.47.23-.9 1.44-.9 2.55 0 .34.09 1 .23 1.62.38 1.68.38 1.62.04 2.18-.39.65-.43 1-.16 1.7.23.62.22.81-.13 1.36-.44.71-.62 1.15-.62 1.55 0 .39.01.41.4.7.45.34.5.52.2.71-.28.19-.75.12-1.54-.24-1.89-.85-3.12-.98-3.67-.39-.23.25-.25.58-.07 1.23.18.7.16.91-.15 1.18-.15.13-.55.4-.9.6-.82.47-1.1.77-1.37 1.46-.21.54-.22.62-.26 2.5l-.04 1.94-.25.25c-.18.18-.35.26-.6.29-.43.04-.5-.02-.62-.62-.13-.6-.27-.8-.58-.8-.13 0-.31.03-.39.08-.13.07-.16.03-.24-.36-.17-.83-.68-.81-1.5.05l-.54.56-.38-.04c-.47-.05-1.12-.39-1.41-.73-.12-.14-.35-.48-.52-.75-.33-.55-.7-.78-1.13-.69-.59.11-.78.66-.42 1.16.23.3.21.51-.07 1.16-.26.61-.35.65-.87.44-.34-.14-.49-.16-.66-.1-.29.1-.43.39-.37.76l.04.3-.28-.09c-.4-.12-.67-.02-.92.34-.12.18-.23.32-.25.32-.02 0-.13-.07-.24-.16z" class="kraj"/></a></g></svg>