<svg xmlns="http://www.w3.org/2000/svg" xmlns:xlink="http://www.w3.org/1999/xlink" style="background-color:#ffffff00" width="554" height="292" x="0" y="0" version="1.1" viewBox="0 0 554 292" xml:space="preserve"><g id="Layer%203"><path fill="#5a69a6" d="M 277 280.6406 C 423.7285 280.6406 542.6797 220.3594 542.6797 146 C 542.6797 71.6411 423.7285 11.3589 277 11.3589 C 130.271 11.3589 11.3198 71.6411 11.3198 146 C 11.3198 220.3594 130.271 280.6406 277 280.6406 Z"/><g><path fill="#fff" d="M 162.0283 104.6929 C 174.0908 104.6929 182.1299 106.9194 186.1494 111.3726 C 190.165 115.8257 191.1221 123.4702 189.0205 134.3022 C 186.8252 145.5835 182.5986 153.6348 176.333 158.459 C 170.0674 163.2822 160.5322 165.6934 147.7314 165.6934 L 128.4189 165.6934 L 140.2744 104.6929 L 162.0283 104.6929 ZM 84.6689 227.4434 L 116.4189 227.4434 L 123.9502 188.6934 L 151.1455 188.6934 C 163.1455 188.6934 173.0166 187.4355 180.7666 184.9111 C 188.5166 182.3926 195.5596 178.165 201.8994 172.2314 C 207.2197 167.3408 211.5244 161.9473 214.8213 156.0479 C 218.1143 150.1533 220.4541 143.646 221.8369 136.5288 C 225.1963 119.2515 222.6611 105.7944 214.2393 96.1538 C 205.8174 86.5132 192.4189 81.6929 174.0518 81.6929 L 112.9971 81.6929 L 84.6689 227.4434 Z"/><path fill="#fff" d="M 245.1553 42.9429 L 276.6553 42.9429 L 269.124 81.6929 L 297.1865 81.6929 C 314.8428 81.6929 327.0225 84.7749 333.7256 90.9312 C 340.4287 97.0913 342.4365 107.0718 339.7568 120.8687 L 326.5771 188.6934 L 294.5771 188.6934 L 307.1084 124.2046 C 308.5342 116.8687 308.0107 111.8647 305.5342 109.1968 C 303.0576 106.5288 297.7881 105.1929 289.7295 105.1929 L 264.5537 105.1929 L 248.3271 188.6934 L 216.8271 188.6934 L 245.1553 42.9429 Z"/><path fill="#fff" d="M 409.8438 104.6929 C 421.9063 104.6929 429.9453 106.9194 433.9648 111.3726 C 437.9814 115.8257 438.9385 123.4702 436.8359 134.3022 C 434.6406 145.5835 430.415 153.6348 424.1484 158.459 C 417.8828 163.2822 408.3477 165.6934 395.5469 165.6934 L 376.2354 165.6934 L 388.0898 104.6929 L 409.8438 104.6929 ZM 332.4854 227.4434 L 364.2354 227.4434 L 371.7656 188.6934 L 398.9609 188.6934 C 410.9609 188.6934 420.832 187.4355 428.582 184.9111 C 436.332 182.3926 443.375 178.165 449.7148 172.2314 C 455.0352 167.3408 459.3398 161.9473 462.6367 156.0479 C 465.9297 150.1533 468.2695 143.646 469.6523 136.5288 C 473.0117 119.2515 470.4775 105.7944 462.0547 96.1538 C 453.6328 86.5132 440.2344 81.6929 421.8672 81.6929 L 360.8135 81.6929 L 332.4854 227.4434 Z"/></g></g></svg>