<svg xmlns="http://www.w3.org/2000/svg" viewBox="0 0 1024 3052"><path d="M 1024,2702.444 512,2305.018 0,2702.446 0,2540.408 512,2142.982 1024,2540.41 Z M 896,2688 l 0,384 -256,0 0,-256 -256,0 0,256 -256.00001,0 0,-384 L 512,2400 Z" class="path1"/><path d="m 864,1024 c 88.36401,0 160,71.634 160,160 0,36.02 -11.91,69.258 -32.00002,96 L 928,1344 704,1120 l 64,-64 c 26.742,-20.09 59.978,-32 96,-32 z M 64,1760 0,2048 288,1984 880,1392 656,1168 64,1760 Z m 651.578,-372.422 -448,448 -55.156,-55.156 448,-448 55.156,55.156 z" class="path1"/><path d="M 853.806,229.076 C 831.594,198.784 800.632,163.376 766.628,129.372 732.624,95.368 697.216,64.408 666.924,42.194 615.35,4.374 590.332,0 576,0 L 80,0 C 35.888,0 0,35.888 0,80 l 0,864 c 0,44.112 35.888,80 80,80 l 736,0 c 44.112,0 80,-35.888 80,-80 l 0,-624 c 0,-14.332 -4.372,-39.35 -42.194,-90.924 z m -132.432,-54.45 c 30.7,30.7 54.8,58.398 72.58,81.374 L 640,256 640,102.054 c 22.984,17.78 50.678,41.878 81.374,72.572 z M 832,944 c 0,8.672 -7.328,16 -16,16 l -736,0 c -8.672,0 -16,-7.328 -16,-16 L 64,80 c 0,-8.672 7.328,-16 16,-16 0,0 495.956,-0.002 496,0 l 0,224 c 0,17.672 14.326,32 32,32 l 224,0 0,624 z" class="path1"/></svg>