<svg width="500" height="100" viewBox="0 0 500 100" fill="currentColor" xmlns="http://www.w3.org/2000/svg">
<path d="M15 91.3C24 90.8 30 89.9 33 87.9C36.6 85.2 38.4 81.1 38.4 75.4L38.2 15.4H23.2V73.8C23.2 78.8 21.9 81.8 19.2 83C16.5 84 10.4 84.7 1 84.7V91.7C6.7 91.7 11.4 91.5 15 91.3ZM154.8 84.9V77.9H86.8V52.9H142.8V46.5H86.8V22.5H154.8V15.5H71.8V85.2H154.8V84.9ZM298.1 77.2C285.5 78.4 274.5 79.2 265.3 79.2C256 79.2 249 78.5 244.3 77.4C239.3 75.8 235.7 74.4 233.3 71.4C230.824 69.0466 229.087 66.0237 228.3 62.7C227.3 59.4 226.9 55.2 226.9 49.9C226.9 39.2 229.7 31.7 233.9 27.3C238.9 22.9 248.6 20.7 262.9 20.7C273.5 20.7 284.9 21.3 298.6 22.5L299.2 16C285 14.5 272.6 14 262.2 14C251.6 14 243.2 14.5 236.5 16C229.9 17.5 224.8 20 221.2 23C217.4 26.3 214.9 30 213.5 34.2C212.002 39.1907 211.326 44.3921 211.5 49.6C211.5 55.8 212.1 60.9 213.5 65C214.9 69 217.5 73 221 76C224.5 79 229.7 81.4 236.4 83C243.2 84.4 251.9 85.2 262.4 85.2C273.4 85.2 285.4 84.5 299.2 83.2L298.1 76.9V77.2ZM494.8 22.8L496.2 16.3L489.5 15.8C476.1 14.8 464.5 14.3 455 14.3C425.7 14.3 411 20.5 411 33C411 39.2 414.3 43.7 420.7 46.3C426.7 49 437.7 51.1 452.9 52.8C464.6 53.8 472.6 55.3 476.9 57C481.2 58.6 483.3 61.3 483.3 65C483.3 74.4 473.5 79 454 79C444.7 79 431 78.4 413.2 77.2L411.5 83.7L418.5 84.2C433 85.2 445 85.9 454.5 85.9C483.5 85.9 498.2 78.7 498.2 64.5C498.2 58.7 495.2 54.5 489.6 52C483.8 49.5 474 47.5 460.1 46C446.1 44.3 437.1 42.8 432.4 41.2C427.8 39.6 425.4 36.7 425.4 32.5C425.4 24.9 435.4 21.1 455.1 21.1C462.8 21.1 476.5 21.7 494.8 22.8ZM279.1 1H271.1L262.1 6.3L252.8 1H245L258 9H266L279 1H279.1ZM356.8 14.5L318.8 79.8V87.8H327.8L362.3 28.3L386.6 55.3H395.3V47.3L365.8 14.5H356.8Z" fill="white"/>
</svg>
