<svg xmlns="http://www.w3.org/2000/svg" viewBox="0 0 800 900" style="font-family: -apple-system, BlinkMacSystemFont, 'Segoe UI', Roboto, Arial, sans-serif;">
  <defs>
    <style>
      .question-box { fill: #3b82f6; }
      .action-box-green { fill: #10b981; }
      .action-box-orange { fill: #f59e0b; }
      .action-box-blue { fill: #06b6d4; }
      .text-white { fill: white; font-size: 16px; font-weight: 600; }
      .text-small { fill: white; font-size: 14px; }
      .arrow { stroke: #64748b; stroke-width: 2; fill: none; marker-end: url(#arrowhead); }
      .arrow-yes { stroke: #10b981; stroke-width: 2.5; fill: none; marker-end: url(#arrowhead-green); }
      .arrow-no { stroke: #ef4444; stroke-width: 2.5; fill: none; marker-end: url(#arrowhead-red); }
      .label-yes { fill: #10b981; font-size: 14px; font-weight: 600; }
      .label-no { fill: #ef4444; font-size: 14px; font-weight: 600; }
    </style>
    <marker id="arrowhead" markerWidth="10" markerHeight="10" refX="9" refY="3" orient="auto">
      <polygon points="0 0, 10 3, 0 6" fill="#64748b" />
    </marker>
    <marker id="arrowhead-green" markerWidth="10" markerHeight="10" refX="9" refY="3" orient="auto">
      <polygon points="0 0, 10 3, 0 6" fill="#10b981" />
    </marker>
    <marker id="arrowhead-red" markerWidth="10" markerHeight="10" refX="9" refY="3" orient="auto">
      <polygon points="0 0, 10 3, 0 6" fill="#ef4444" />
    </marker>
  </defs>

  <!-- Start -->
  <rect x="250" y="20" width="300" height="60" rx="8" class="question-box"/>
  <text x="400" y="50" text-anchor="middle" class="text-white">Konec podpory Windows 10</text>
  <text x="400" y="68" text-anchor="middle" class="text-small">Co mám dělat?</text>

  <path d="M 400 80 L 400 120" class="arrow"/>

  <!-- Question 1 -->
  <rect x="200" y="120" width="400" height="70" rx="8" class="question-box"/>
  <text x="400" y="147" text-anchor="middle" class="text-white">Splňuje počítač</text>
  <text x="400" y="167" text-anchor="middle" class="text-white">požadavky Windows 11?</text>
  <text x="400" y="182" text-anchor="middle" class="text-small">(TPM 2.0, UEFI, 4 GB RAM)</text>

  <!-- Yes branch - Windows 11 -->
  <path d="M 600 155 L 680 155 L 680 250 L 650 250" class="arrow-yes"/>
  <text x="690" y="152" class="label-yes">ANO</text>

  <rect x="470" y="220" width="180" height="60" rx="8" class="action-box-green"/>
  <text x="560" y="245" text-anchor="middle" class="text-white">✓ Upgrade na</text>
  <text x="560" y="265" text-anchor="middle" class="text-white">Windows 11</text>

  <!-- No branch -->
  <path d="M 400 190 L 400 240" class="arrow-no"/>
  <text x="415" y="220" class="label-no">NE</text>

  <!-- Question 2 -->
  <rect x="200" y="240" width="400" height="70" rx="8" class="question-box"/>
  <text x="400" y="267" text-anchor="middle" class="text-white">Je počítač</text>
  <text x="400" y="287" text-anchor="middle" class="text-white">starší než 7 let?</text>

  <!-- Yes branch - New PC from Q2 -->
  <path d="M 200 275 L 120 275 L 120 410 L 190 410" class="arrow-yes"/>
  <text x="85" y="272" class="label-yes">ANO</text>

  <rect x="190" y="380" width="180" height="60" rx="8" class="action-box-blue"/>
  <text x="280" y="405" text-anchor="middle" class="text-white">Nový počítač</text>
  <text x="280" y="425" text-anchor="middle" class="text-white">s Windows 11</text>

  <!-- No branch -->
  <path d="M 400 310 L 400 360" class="arrow-no"/>
  <text x="415" y="340" class="label-no">NE</text>

  <!-- Question 3 -->
  <rect x="200" y="360" width="400" height="80" rx="8" class="question-box"/>
  <text x="400" y="387" text-anchor="middle" class="text-white">Používáte specifické</text>
  <text x="400" y="407" text-anchor="middle" class="text-white">Windows programy?</text>
  <text x="400" y="427" text-anchor="middle" class="text-small">(Adobe, CAD, hry, ...)</text>

  <!-- Yes branch - New PC or Risk -->
  <path d="M 600 400 L 680 400 L 680 560 L 650 560" class="arrow-yes"/>
  <text x="690" y="397" class="label-yes">ANO</text>

  <g>
    <rect x="470" y="530" width="180" height="60" rx="8" class="action-box-blue"/>
    <text x="560" y="555" text-anchor="middle" class="text-white">Nový počítač</text>
    <text x="560" y="575" text-anchor="middle" class="text-white">s Windows 11</text>
  </g>

  <text x="560" y="610" text-anchor="middle" style="fill: #64748b; font-size: 14px;">nebo</text>

  <g>
    <rect x="470" y="620" width="180" height="60" rx="8" class="action-box-blue"/>
    <text x="560" y="645" text-anchor="middle" class="text-white">Ponechat</text>
    <text x="560" y="665" text-anchor="middle" class="text-white">Windows 10</text>
  </g>

  <!-- No branch - Linux -->
  <path d="M 200 400 L 120 400 L 120 570 L 190 570" class="arrow-no"/>
  <text x="85" y="397" class="label-no">NE</text>

  <rect x="190" y="540" width="180" height="60" rx="8" class="action-box-green"/>
  <text x="280" y="565" text-anchor="middle" class="text-white">✓ Vyzkoušejte</text>
  <text x="280" y="585" text-anchor="middle" class="text-white">Linux</text>

  <!-- Legend -->
  <g transform="translate(50, 750)">
    <text x="0" y="0" style="fill: #1e293b; font-size: 16px; font-weight: 600;">Legenda:</text>

    <circle cx="10" cy="25" r="6" fill="#10b981"/>
    <text x="25" y="30" style="fill: #1e293b; font-size: 14px;">Optimální řešení</text>

    <circle cx="10" cy="50" r="6" fill="#06b6d4"/>
    <text x="25" y="55" style="fill: #1e293b; font-size: 14px;">Alternativní řešení</text>

    <circle cx="10" cy="75" r="6" fill="#3b82f6"/>
    <text x="25" y="80" style="fill: #1e293b; font-size: 14px;">Rozhodovací bod</text>
  </g>

  <!-- Footer -->
  <text x="400" y="870" text-anchor="middle" style="fill: #64748b; font-size: 12px;">
    💡 TIP: Vždy zálohujte data před jakoukoliv změnou!
  </text>
</svg>
